<svg width="119" height="29" viewBox="0 0 119 29" fill="none" xmlns="http://www.w3.org/2000/svg">
<path d="M12.9777 7.78266V1.51662e-06L25.9488 0L23.0303 1.94567L29.5158 5.51272L29.5247 9.40406L23.2896 13.2954V9.72833L16.2327 5.91399L12.9777 7.78266Z" fill="white"/>
<path d="M13.0749 19.4567L6.32214 23.2347L0 11.9086L3.12139 13.5086L3.07499 6.10702L6.4685 4.20264L12.9802 7.78165L9.82176 9.54469L9.8996 17.51L13.0749 19.4567Z" fill="white"/>
<path d="M23.2896 13.2954L29.8743 17.2349L23.2267 28.3731L23.0517 24.8699L16.6649 28.6109L13.0749 26.6242L13.0749 19.4567L15.9934 21.078L23.2896 17.0246L23.2896 13.2954Z" fill="white"/>
<path d="M39.291 23V5.72H46.587C47.819 5.72 48.891 5.928 49.803 6.344C50.715 6.76 51.411 7.344 51.891 8.096C52.387 8.848 52.635 9.728 52.635 10.736C52.635 11.728 52.387 12.6 51.891 13.352C51.411 14.104 50.715 14.688 49.803 15.104C48.891 15.52 47.819 15.728 46.587 15.728H41.739V13.352H46.491C47.499 13.352 48.267 13.12 48.795 12.656C49.339 12.192 49.611 11.552 49.611 10.736C49.611 9.92 49.347 9.296 48.819 8.864C48.291 8.416 47.515 8.192 46.491 8.192H42.411V23H39.291ZM49.179 23L41.475 14.168H44.979L53.499 23H49.179ZM59.4699 23.24C58.1739 23.24 57.0379 22.968 56.0619 22.424C55.1019 21.88 54.3499 21.128 53.8059 20.168C53.2779 19.208 53.0139 18.104 53.0139 16.856C53.0139 15.608 53.2779 14.512 53.8059 13.568C54.3499 12.608 55.1019 11.864 56.0619 11.336C57.0219 10.792 58.1419 10.52 59.4219 10.52C60.6379 10.52 61.6939 10.776 62.5899 11.288C63.4859 11.784 64.1819 12.488 64.6779 13.4C65.1739 14.312 65.4219 15.376 65.4219 16.592C65.4219 16.816 65.4139 17.024 65.3979 17.216C65.3819 17.408 65.3579 17.6 65.3259 17.792H54.8859V15.68H62.9979L62.3739 16.256C62.3739 15.104 62.1099 14.24 61.5819 13.664C61.0539 13.088 60.3179 12.8 59.3739 12.8C58.3499 12.8 57.5339 13.152 56.9259 13.856C56.3339 14.56 56.0379 15.576 56.0379 16.904C56.0379 18.216 56.3339 19.224 56.9259 19.928C57.5339 20.616 58.3899 20.96 59.4939 20.96C60.1339 20.96 60.6939 20.84 61.1739 20.6C61.6539 20.36 62.0059 19.992 62.2299 19.496H65.0859C64.6859 20.648 64.0059 21.56 63.0459 22.232C62.1019 22.904 60.9099 23.24 59.4699 23.24ZM73.9489 23.24C72.7809 23.24 71.8209 22.968 71.0689 22.424C70.3329 21.864 69.8769 21.096 69.7009 20.12L69.9169 20.096V23H66.9649V5.72H69.9889V13.52L69.7729 13.472C69.9809 12.56 70.4689 11.84 71.2369 11.312C72.0209 10.784 72.9889 10.52 74.1409 10.52C75.2289 10.52 76.1729 10.784 76.9729 11.312C77.7889 11.824 78.4209 12.552 78.8689 13.496C79.3169 14.44 79.5409 15.552 79.5409 16.832C79.5409 18.128 79.3089 19.256 78.8449 20.216C78.3809 21.176 77.7329 21.92 76.9009 22.448C76.0689 22.976 75.0849 23.24 73.9489 23.24ZM73.1809 20.744C74.1569 20.744 74.9329 20.408 75.5089 19.736C76.0849 19.048 76.3729 18.088 76.3729 16.856C76.3729 15.624 76.0769 14.672 75.4849 14C74.9089 13.328 74.1329 12.992 73.1569 12.992C72.1969 12.992 71.4209 13.336 70.8289 14.024C70.2369 14.696 69.9409 15.648 69.9409 16.88C69.9409 18.112 70.2369 19.064 70.8289 19.736C71.4209 20.408 72.2049 20.744 73.1809 20.744ZM85.1111 23.24C84.2631 23.24 83.5271 23.064 82.9031 22.712C82.2951 22.344 81.8231 21.848 81.4871 21.224C81.1671 20.6 81.0071 19.896 81.0071 19.112V10.76H84.0311V18.488C84.0311 19.24 84.2151 19.808 84.5831 20.192C84.9671 20.576 85.5031 20.768 86.1911 20.768C86.8151 20.768 87.3591 20.624 87.8231 20.336C88.3031 20.048 88.6791 19.648 88.9511 19.136C89.2391 18.608 89.3831 18.016 89.3831 17.36L89.6951 20.288C89.2951 21.184 88.6951 21.904 87.8951 22.448C87.1111 22.976 86.1831 23.24 85.1111 23.24ZM89.4791 23V20.12H89.3831V10.76H92.4311V23H89.4791ZM94.5405 23V10.76H97.5645V23H94.5405ZM94.3965 8.744V5.408H97.6845V8.744H94.3965ZM100.055 23V5.72H103.079V23H100.055ZM114.305 23V20.24L114.545 20.288C114.337 21.184 113.833 21.904 113.033 22.448C112.233 22.976 111.281 23.24 110.177 23.24C109.057 23.24 108.081 22.984 107.249 22.472C106.433 21.944 105.801 21.208 105.353 20.264C104.905 19.32 104.681 18.208 104.681 16.928C104.681 15.632 104.913 14.504 105.377 13.544C105.841 12.584 106.489 11.84 107.321 11.312C108.169 10.784 109.153 10.52 110.273 10.52C111.425 10.52 112.377 10.8 113.129 11.36C113.881 11.904 114.345 12.664 114.521 13.64L114.209 13.664V5.72H117.257V23H114.305ZM111.065 20.768C112.041 20.768 112.817 20.432 113.393 19.76C113.985 19.072 114.281 18.112 114.281 16.88C114.281 15.648 113.985 14.696 113.393 14.024C112.801 13.352 112.017 13.016 111.041 13.016C110.081 13.016 109.305 13.36 108.713 14.048C108.121 14.72 107.825 15.672 107.825 16.904C107.825 18.136 108.121 19.088 108.713 19.76C109.305 20.432 110.089 20.768 111.065 20.768Z" fill="white"/>
</svg>
