<svg width="398" height="97" viewBox="0 0 398 97" fill="none" xmlns="http://www.w3.org/2000/svg">
<path d="M43.9839 26.377V5.14012e-06L87.9455 0L78.0542 6.59425L100.035 18.6837L100.065 31.8722L78.9331 45.0607V32.9712L55.0158 20.0437L43.9839 26.377Z" fill="url(#paint0_radial_265_33)"/>
<path d="M44.3133 65.9424L21.427 78.7469L0 40.3606L10.579 45.7835L10.4218 20.6979L21.923 14.2436L43.9926 26.3735L33.2879 32.3488L33.5517 59.3448L44.3133 65.9424Z" fill="url(#paint1_radial_265_33)"/>
<path d="M78.9331 45.0607L101.25 58.4125L78.7198 96.162L78.1267 84.2888L56.4805 96.9678L44.3133 90.2346L44.3133 65.9424L54.2047 71.4376L78.9331 57.6996L78.9331 45.0607Z" fill="url(#paint2_radial_265_33)"/>
<path d="M133.165 77.9515V19.3862H157.893C162.068 19.3862 165.701 20.0912 168.792 21.5011C171.883 22.911 174.242 24.8903 175.869 27.4389C177.55 29.9876 178.39 32.9701 178.39 36.3864C178.39 39.7485 177.55 42.7039 175.869 45.2526C174.242 47.8012 171.883 49.7805 168.792 51.1904C165.701 52.6003 162.068 53.3053 157.893 53.3053H141.462V45.2526H157.567C160.983 45.2526 163.586 44.4663 165.376 42.8937C167.22 41.3211 168.141 39.152 168.141 36.3864C168.141 33.6208 167.247 31.506 165.457 30.0418C163.668 28.5235 161.038 27.7643 157.567 27.7643H143.739V77.9515H133.165ZM166.677 77.9515L140.567 48.0181H152.443L181.319 77.9515H166.677Z" fill="url(#paint3_radial_265_33)"/>
<path d="M201.555 78.7649C197.163 78.7649 193.313 77.8431 190.005 75.9993C186.751 74.1556 184.203 71.6069 182.359 68.3533C180.569 65.0997 179.675 61.358 179.675 57.1283C179.675 52.8986 180.569 49.184 182.359 45.9846C184.203 42.731 186.751 40.2094 190.005 38.4199C193.259 36.5762 197.054 35.6543 201.393 35.6543C205.514 35.6543 209.093 36.522 212.13 38.2572C215.166 39.9383 217.525 42.3243 219.206 45.4152C220.887 48.5062 221.728 52.1123 221.728 56.2335C221.728 56.9927 221.701 57.6977 221.646 58.3484C221.592 58.9991 221.511 59.6499 221.402 60.3006H186.019V53.1426H213.512L211.398 55.0948C211.398 51.1904 210.503 48.2622 208.713 46.31C206.924 44.3578 204.429 43.3817 201.23 43.3817C197.759 43.3817 194.994 44.5747 192.933 46.9607C190.927 49.3467 189.924 52.7901 189.924 57.291C189.924 61.7376 190.927 65.1539 192.933 67.5399C194.994 69.8717 197.895 71.0376 201.637 71.0376C203.806 71.0376 205.704 70.6309 207.33 69.8175C208.957 69.004 210.15 67.7568 210.909 66.0758H220.589C219.233 69.9801 216.929 73.0711 213.675 75.3486C210.476 77.6262 206.436 78.7649 201.555 78.7649Z" fill="url(#paint4_radial_265_33)"/>
<path d="M250.627 78.7649C246.669 78.7649 243.415 77.8431 240.866 75.9993C238.372 74.1014 236.826 71.4985 236.23 68.1906L236.962 68.1093V77.9515H226.957V19.3862H237.206V45.8219L236.474 45.6593C237.179 42.5683 238.833 40.1281 241.436 38.3386C244.093 36.5491 247.374 35.6543 251.278 35.6543C254.965 35.6543 258.165 36.5491 260.876 38.3386C263.642 40.0739 265.784 42.5412 267.302 45.7406C268.82 48.94 269.58 52.7088 269.58 57.047C269.58 61.4394 268.793 65.2624 267.221 68.516C265.648 71.7696 263.452 74.2912 260.632 76.0807C257.812 77.8702 254.477 78.7649 250.627 78.7649ZM248.024 70.3055C251.332 70.3055 253.962 69.1667 255.914 66.8892C257.867 64.5574 258.843 61.3038 258.843 57.1283C258.843 52.9528 257.839 49.7263 255.833 47.4487C253.881 45.1712 251.251 44.0324 247.943 44.0324C244.689 44.0324 242.059 45.1983 240.053 47.5301C238.047 49.8076 237.043 53.0341 237.043 57.2096C237.043 61.3851 238.047 64.6116 240.053 66.8892C242.059 69.1667 244.717 70.3055 248.024 70.3055Z" fill="url(#paint5_radial_265_33)"/>
<path d="M288.458 78.7649C285.584 78.7649 283.09 78.1684 280.975 76.9754C278.914 75.7282 277.315 74.0472 276.176 71.9323C275.091 69.8174 274.549 67.4315 274.549 64.7743V36.4678H284.798V62.6595C284.798 65.2081 285.422 67.1332 286.669 68.4347C287.97 69.7361 289.787 70.3868 292.119 70.3868C294.234 70.3868 296.077 69.8988 297.65 68.9227C299.277 67.9466 300.551 66.5909 301.473 64.8557C302.449 63.0662 302.937 61.0598 302.937 58.8365L303.994 68.76C302.639 71.7967 300.605 74.237 297.894 76.0807C295.237 77.8702 292.092 78.7649 288.458 78.7649ZM303.262 77.9515V68.1906H302.937V36.4678H313.267V77.9515H303.262Z" fill="url(#paint6_radial_265_33)"/>
<path d="M320.416 77.9515V36.4678H330.665V77.9515H320.416ZM319.928 29.6351V18.3288H331.072V29.6351H319.928Z" fill="url(#paint7_radial_265_33)"/>
<path d="M339.106 77.9515V19.3862H349.355V77.9515H339.106Z" fill="url(#paint8_radial_265_33)"/>
<path d="M387.403 77.9515V68.5973L388.216 68.76C387.511 71.7967 385.803 74.237 383.092 76.0807C380.381 77.8702 377.154 78.7649 373.412 78.7649C369.616 78.7649 366.309 77.8973 363.489 76.162C360.723 74.3725 358.581 71.8781 357.063 68.6787C355.544 65.4793 354.785 61.7105 354.785 57.3723C354.785 52.9799 355.572 49.1569 357.144 45.9033C358.717 42.6496 360.913 40.1281 363.733 38.3386C366.607 36.5491 369.942 35.6543 373.738 35.6543C377.642 35.6543 380.869 36.6033 383.417 38.5013C385.966 40.345 387.539 42.9208 388.135 46.2286L387.078 46.31V19.3862H397.408V77.9515H387.403ZM376.422 70.3868C379.73 70.3868 382.36 69.2481 384.312 66.9705C386.318 64.6388 387.322 61.3851 387.322 57.2096C387.322 53.0341 386.318 49.8076 384.312 47.5301C382.306 45.2526 379.648 44.1138 376.341 44.1138C373.087 44.1138 370.457 45.2797 368.451 47.6114C366.444 49.889 365.441 53.1155 365.441 57.291C365.441 61.4665 366.444 64.693 368.451 66.9705C370.457 69.2481 373.114 70.3868 376.422 70.3868Z" fill="url(#paint9_radial_265_33)"/>
<defs>
<radialGradient id="paint0_radial_265_33" cx="0" cy="0" r="1" gradientUnits="userSpaceOnUse" gradientTransform="translate(198.704 48.4839) scale(347.796 347.796)">
<stop stop-color="white"/>
<stop offset="1" stop-color="white" stop-opacity="0"/>
</radialGradient>
<radialGradient id="paint1_radial_265_33" cx="0" cy="0" r="1" gradientUnits="userSpaceOnUse" gradientTransform="translate(198.704 48.4839) scale(347.796 347.796)">
<stop stop-color="white"/>
<stop offset="1" stop-color="white" stop-opacity="0"/>
</radialGradient>
<radialGradient id="paint2_radial_265_33" cx="0" cy="0" r="1" gradientUnits="userSpaceOnUse" gradientTransform="translate(198.704 48.4839) scale(347.796 347.796)">
<stop stop-color="white"/>
<stop offset="1" stop-color="white" stop-opacity="0"/>
</radialGradient>
<radialGradient id="paint3_radial_265_33" cx="0" cy="0" r="1" gradientUnits="userSpaceOnUse" gradientTransform="translate(198.704 48.4839) scale(347.796 347.796)">
<stop stop-color="white"/>
<stop offset="1" stop-color="white" stop-opacity="0"/>
</radialGradient>
<radialGradient id="paint4_radial_265_33" cx="0" cy="0" r="1" gradientUnits="userSpaceOnUse" gradientTransform="translate(198.704 48.4839) scale(347.796 347.796)">
<stop stop-color="white"/>
<stop offset="1" stop-color="white" stop-opacity="0"/>
</radialGradient>
<radialGradient id="paint5_radial_265_33" cx="0" cy="0" r="1" gradientUnits="userSpaceOnUse" gradientTransform="translate(198.704 48.4839) scale(347.796 347.796)">
<stop stop-color="white"/>
<stop offset="1" stop-color="white" stop-opacity="0"/>
</radialGradient>
<radialGradient id="paint6_radial_265_33" cx="0" cy="0" r="1" gradientUnits="userSpaceOnUse" gradientTransform="translate(198.704 48.4839) scale(347.796 347.796)">
<stop stop-color="white"/>
<stop offset="1" stop-color="white" stop-opacity="0"/>
</radialGradient>
<radialGradient id="paint7_radial_265_33" cx="0" cy="0" r="1" gradientUnits="userSpaceOnUse" gradientTransform="translate(198.704 48.4839) scale(347.796 347.796)">
<stop stop-color="white"/>
<stop offset="1" stop-color="white" stop-opacity="0"/>
</radialGradient>
<radialGradient id="paint8_radial_265_33" cx="0" cy="0" r="1" gradientUnits="userSpaceOnUse" gradientTransform="translate(198.704 48.4839) scale(347.796 347.796)">
<stop stop-color="white"/>
<stop offset="1" stop-color="white" stop-opacity="0"/>
</radialGradient>
<radialGradient id="paint9_radial_265_33" cx="0" cy="0" r="1" gradientUnits="userSpaceOnUse" gradientTransform="translate(198.704 48.4839) scale(347.796 347.796)">
<stop stop-color="white"/>
<stop offset="1" stop-color="white" stop-opacity="0"/>
</radialGradient>
</defs>
</svg>
