<svg width="133" height="30" viewBox="0 0 133 30" fill="none" xmlns="http://www.w3.org/2000/svg">
<path d="M57.2037 23.7537L52.6873 5.37302H56.3109L59.278 17.4255L62.2452 5.37302H66.1314L69.0986 17.4255L72.0657 5.37302H75.6893L71.1729 23.7537H67.2867L64.1883 11.1761L61.0898 23.7537H57.2037ZM79.4637 24.1213C77.1005 24.1213 75.1574 22.6771 75.1574 20.3139C75.1574 17.1629 78.0195 16.4014 81.118 15.85C82.7722 15.5611 83.7963 15.5874 83.5337 14.3008C83.3762 13.5393 82.7197 13.1717 81.3806 13.1717C79.8051 13.1717 79.2011 14.117 79.1486 14.9047L75.2887 14.6421C75.2887 13.8544 75.6038 10.2045 81.3806 10.2045C85.5818 10.2045 87.4724 12.0426 87.4724 15.9813V23.7537H83.7175V21.0753C83.0611 22.7296 81.7482 24.1213 79.4637 24.1213ZM79.0436 19.8412C79.0436 20.7602 79.7263 21.1541 80.6453 21.1541C82.2208 21.1541 83.7175 19.8937 83.7175 18.0031V17.1366C83.2974 17.6355 82.4834 17.9244 81.0129 18.2657C79.7263 18.5546 79.0436 19.0535 79.0436 19.8412ZM89.2998 23.7537V5.11044H93.186V23.7537H89.2998ZM100.646 23.7537C97.8622 23.7537 96.2079 22.5458 96.2079 19.1848V13.5918H93.976V10.6246H96.2079V6.65967L99.9628 6.39709V10.6246H103.376V13.5918H99.9628V18.8959C99.9628 20.5239 100.225 20.7865 101.748 20.7865H103.376V23.7537H100.646ZM110.3 24.1738C107.149 24.1738 103.657 22.2832 103.657 17.2679C103.657 12.2789 107.149 10.2045 110.3 10.2045C113.451 10.2045 116.549 12.2789 116.549 17.2679V17.9769H107.543C107.543 20.0775 108.462 21.2066 110.3 21.2066C112.138 21.2066 112.663 20.1301 112.794 19.6049L116.549 19.8675C116.418 22.4933 113.451 24.1738 110.3 24.1738ZM107.543 15.6662H113.031C113.031 14.3533 112.138 13.1717 110.3 13.1717C108.462 13.1717 107.543 14.3533 107.543 15.6662ZM117.613 23.7537V10.6246H121.5V13.0929C122.156 11.3336 123.364 10.6246 124.808 10.6246H126.567V13.5918H124.02C121.92 13.5918 121.5 14.9835 121.5 17.8719V23.7537H117.613ZM125.538 23.7537V19.5524H130.002V23.7537H125.538Z" fill="black"/>
<path fill-rule="evenodd" clip-rule="evenodd" d="M21.1129 0H6.99902L0 11.1026V29.8064L10.6719 29.8064L21.1123 14.5566V29.8064L21.1129 29.8064V0Z" fill="black"/>
<path fill-rule="evenodd" clip-rule="evenodd" d="M21.1172 14.549V29.8074H42.2301V0.000976562H28.0734L21.1172 14.549ZM42.2295 14.5568V29.8066H31.7891L42.2295 14.5568Z" fill="black"/>
</svg>
