<svg width="16" height="16" viewBox="0 0 16 16" fill="none" xmlns="http://www.w3.org/2000/svg">
<g clip-path="url(#clip0_265_47)">
<path d="M8.00261 1.33398C9.81394 1.33398 10.0399 1.34065 10.7506 1.37398C11.4606 1.40732 11.9439 1.51865 12.3693 1.68398C12.8093 1.85332 13.1799 2.08265 13.5506 2.45265C13.8896 2.78592 14.1519 3.18904 14.3193 3.63398C14.4839 4.05865 14.5959 4.54265 14.6293 5.25265C14.6606 5.96332 14.6693 6.18932 14.6693 8.00065C14.6693 9.81199 14.6626 10.038 14.6293 10.7487C14.5959 11.4587 14.4839 11.942 14.3193 12.3673C14.1524 12.8125 13.89 13.2157 13.5506 13.5487C13.2172 13.8875 12.8141 14.1498 12.3693 14.3173C11.9446 14.482 11.4606 14.594 10.7506 14.6273C10.0399 14.6587 9.81394 14.6673 8.00261 14.6673C6.19127 14.6673 5.96527 14.6607 5.2546 14.6273C4.5446 14.594 4.06127 14.482 3.63594 14.3173C3.19082 14.1503 2.78762 13.888 2.4546 13.5487C2.11554 13.2154 1.85323 12.8123 1.68594 12.3673C1.5206 11.9427 1.40927 11.4587 1.37594 10.7487C1.3446 10.038 1.33594 9.81199 1.33594 8.00065C1.33594 6.18932 1.3426 5.96332 1.37594 5.25265C1.40927 4.54198 1.5206 4.05932 1.68594 3.63398C1.85276 3.18877 2.11514 2.78553 2.4546 2.45265C2.78772 2.11347 3.19089 1.85114 3.63594 1.68398C4.06127 1.51865 4.54394 1.40732 5.2546 1.37398C5.96527 1.34265 6.19127 1.33398 8.00261 1.33398ZM8.00261 4.66732C7.11855 4.66732 6.2707 5.01851 5.64558 5.64363C5.02046 6.26875 4.66927 7.1166 4.66927 8.00065C4.66927 8.88471 5.02046 9.73255 5.64558 10.3577C6.2707 10.9828 7.11855 11.334 8.00261 11.334C8.88666 11.334 9.73451 10.9828 10.3596 10.3577C10.9848 9.73255 11.3359 8.88471 11.3359 8.00065C11.3359 7.1166 10.9848 6.26875 10.3596 5.64363C9.73451 5.01851 8.88666 4.66732 8.00261 4.66732V4.66732ZM12.3359 4.50065C12.3359 4.27964 12.2481 4.06768 12.0919 3.9114C11.9356 3.75512 11.7236 3.66732 11.5026 3.66732C11.2816 3.66732 11.0696 3.75512 10.9133 3.9114C10.7571 4.06768 10.6693 4.27964 10.6693 4.50065C10.6693 4.72167 10.7571 4.93363 10.9133 5.08991C11.0696 5.24619 11.2816 5.33399 11.5026 5.33399C11.7236 5.33399 11.9356 5.24619 12.0919 5.08991C12.2481 4.93363 12.3359 4.72167 12.3359 4.50065ZM8.00261 6.00065C8.53304 6.00065 9.04175 6.21137 9.41682 6.58644C9.79189 6.96151 10.0026 7.47022 10.0026 8.00065C10.0026 8.53109 9.79189 9.03979 9.41682 9.41487C9.04175 9.78994 8.53304 10.0007 8.00261 10.0007C7.47217 10.0007 6.96346 9.78994 6.58839 9.41487C6.21332 9.03979 6.00261 8.53109 6.00261 8.00065C6.00261 7.47022 6.21332 6.96151 6.58839 6.58644C6.96346 6.21137 7.47217 6.00065 8.00261 6.00065V6.00065Z" fill="white"/>
</g>
<defs>
<clipPath id="clip0_265_47">
<rect width="16" height="16" fill="white"/>
</clipPath>
</defs>
</svg>
