<svg width="200" height="64" viewBox="0 0 200 64" fill="none" xmlns="http://www.w3.org/2000/svg">
<path d="M152.999 30.4429V33.3978H149.869V41.4038C149.869 41.957 149.981 42.3403 150.204 42.5538C150.427 42.7576 150.835 42.8595 151.426 42.8595H152.999V45.8144H150.786C149.224 45.8144 148.064 45.499 147.307 44.8683C146.56 44.2375 146.186 43.2622 146.186 41.9424V33.3978H143.508V30.4429H146.186V26.2506H149.869V30.4429H152.999Z" fill="black" fill-opacity="0.7"/>
<path d="M136.471 46.1783C134.598 46.1783 133.031 45.7416 131.769 44.8682C130.517 43.9851 129.833 42.7187 129.717 41.069H133.341C133.419 41.8162 133.72 42.3985 134.244 42.8158C134.768 43.2234 135.491 43.4271 136.413 43.4271C137.296 43.4271 137.99 43.2525 138.494 42.9031C139.009 42.5538 139.266 42.1074 139.266 41.5639C139.266 41.0981 139.077 40.7245 138.698 40.4431C138.32 40.1617 137.81 39.953 137.17 39.8172L134.55 39.2786C131.561 38.6575 130.066 37.1776 130.066 34.8389C130.066 33.422 130.629 32.2818 131.755 31.4181C132.88 30.5447 134.38 30.108 136.253 30.108C138.116 30.108 139.63 30.569 140.794 31.4909C141.968 32.4031 142.575 33.6501 142.614 35.2319H139.164C139.144 34.5429 138.878 33.9752 138.363 33.5288C137.849 33.0824 137.175 32.8592 136.34 32.8592C135.535 32.8592 134.899 33.0387 134.433 33.3978C133.967 33.7568 133.734 34.1984 133.734 34.7224C133.734 35.1785 133.914 35.5521 134.273 35.8433C134.632 36.1247 135.132 36.3382 135.772 36.4837L138.538 37.0514C140.062 37.3717 141.182 37.8763 141.901 38.5653C142.628 39.2543 142.992 40.1617 142.992 41.2874C142.992 42.2869 142.711 43.1554 142.148 43.893C141.595 44.6208 140.828 45.1836 139.848 45.5815C138.868 45.9794 137.742 46.1783 136.471 46.1783Z" fill="black" fill-opacity="0.7"/>
<path d="M119.723 46.1202C118.112 46.1202 116.797 45.6011 115.778 44.5627C114.759 43.5244 114.25 42.0202 114.25 40.0502V30.443H117.918V39.468C117.918 40.5937 118.19 41.4476 118.733 42.0299C119.277 42.6122 120.039 42.9033 121.019 42.9033C121.989 42.9033 122.79 42.6024 123.421 42.0008C124.061 41.3991 124.381 40.4432 124.381 39.1332V30.443H128.064V45.8146H124.454V43.4564C123.377 45.2323 121.8 46.1202 119.723 46.1202Z" fill="black" fill-opacity="0.7"/>
<path d="M111.883 24.1256V45.8147H108.215V24.1256H111.883Z" fill="black" fill-opacity="0.7"/>
<path d="M90.127 45.8147V24.1256H98.5114C100.802 24.1256 102.573 24.6399 103.825 25.6686C105.086 26.6972 105.717 28.0607 105.717 29.7589C105.717 31.0108 105.377 32.0346 104.698 32.8303C104.028 33.6261 103.111 34.1841 101.947 34.5043V34.5334C103.237 34.6887 104.324 35.2079 105.207 36.091C106.1 36.9644 106.547 38.1725 106.547 39.7155C106.547 41.5399 105.896 43.015 104.596 44.1407C103.305 45.2567 101.403 45.8147 98.8899 45.8147H90.127ZM93.9116 42.685H98.4823C99.7924 42.685 100.807 42.4182 101.525 41.8844C102.243 41.3507 102.602 40.5841 102.602 39.5845C102.602 38.5753 102.248 37.7795 101.539 37.1973C100.84 36.615 99.8506 36.3239 98.5697 36.3239H93.9116V42.685ZM93.9116 33.3107H98.3368C99.4431 33.3107 100.307 33.039 100.928 32.4955C101.559 31.9424 101.874 31.2049 101.874 30.283C101.874 29.3514 101.559 28.6138 100.928 28.0704C100.307 27.527 99.4431 27.2552 98.3368 27.2552H93.9116V33.3107Z" fill="black" fill-opacity="0.7"/>
<path d="M55.9629 19.3787H71.9564C76.0648 19.3787 79.3953 22.7091 79.3953 26.8175V27.5614C79.3953 31.6698 76.0648 35.0002 71.9564 35.0002H55.9629V19.3787Z" fill="black" fill-opacity="0.7"/>
<path d="M55.9629 35.0002H71.9564C76.0648 35.0002 79.3953 38.3307 79.3953 42.4391V43.183C79.3953 47.2913 76.0648 50.6218 71.9564 50.6218H55.9629V35.0002Z" fill="black" fill-opacity="0.7"/>
<path d="M57.9785 35.0499C58.4448 36.2261 59.3136 36.9955 60.5065 37.2875C60.9397 37.3944 61.257 37.4182 61.8324 37.3875C62.9264 37.3284 63.976 37.5648 64.747 38.0455C64.9392 38.1649 65.2041 38.374 65.2041 38.4069C65.2041 38.4115 65.1848 38.424 65.1609 38.4353C65.004 38.5092 64.7049 38.6978 64.5389 38.8285C64.1693 39.1206 63.9055 39.4627 63.785 39.8081C63.7486 39.9093 63.7144 40.0559 63.7144 40.107L63.7144 40.1354L63.802 40.0911C63.9339 40.0252 64.0454 39.9888 64.1898 39.9638C64.4104 39.9263 64.6333 39.9366 64.8971 39.9945C65.0745 40.0343 65.1541 40.0616 65.6647 40.2582C66.2776 40.4934 66.5312 40.5798 66.8587 40.6684C67.2295 40.7673 67.7241 40.8423 68.2177 40.8752C68.4519 40.89 69.0592 40.8832 69.2184 40.8627C69.4344 40.8366 69.8734 40.7582 70.044 40.7161C71.0856 40.4582 71.9453 39.9081 72.6174 39.0706C73.0359 38.549 73.3907 37.8773 73.6033 37.2034C73.6443 37.0716 73.6443 37.0728 73.5419 37.2398C73.1405 37.8967 72.5412 38.3456 71.8157 38.5331C71.6497 38.5762 71.3961 38.6206 71.2187 38.6365C71.0435 38.6524 70.6467 38.6433 70.4352 38.6183C69.9905 38.5649 69.7472 38.499 69.1285 38.2603C68.743 38.1126 68.6373 38.0853 68.4337 38.0853C68.2632 38.0853 68.1847 38.1001 68.0596 38.158C68.0198 38.1774 67.9857 38.1921 67.9834 38.1921C67.9766 38.1921 67.9914 38.1217 68.0152 38.0387C68.1017 37.741 68.3666 37.4523 68.7601 37.2296C68.8238 37.1932 68.8772 37.1603 68.8772 37.1557C68.8772 37.1387 68.6748 36.9864 68.56 36.9182C68.2745 36.7477 67.9243 36.6318 67.5058 36.5704C67.3943 36.5545 67.2829 36.5511 66.8644 36.55C66.4255 36.55 66.3436 36.5466 66.2447 36.5284C65.5783 36.4068 65.0745 36.0772 64.7413 35.5431C64.656 35.4067 64.4968 35.0647 64.5127 35.0499C64.515 35.0476 64.548 35.0545 64.5867 35.067C64.6776 35.0954 64.8982 35.1408 65.0336 35.159C65.1734 35.1783 65.5544 35.1783 65.6931 35.159C65.9456 35.1238 66.1707 35.0522 66.3868 34.9408C66.637 34.8113 66.7223 34.7385 67.143 34.3044C67.3227 34.118 67.4251 34.0328 67.6548 33.8805C68.2484 33.4839 68.9022 33.2407 69.5391 33.1793C69.6732 33.1668 69.6846 33.1634 69.6846 33.143C69.6846 33.1032 69.6391 33.0237 69.58 32.9589C69.4083 32.7702 69.0671 32.6407 68.577 32.5782C68.4769 32.5657 68.3939 32.5532 68.3917 32.552C68.3848 32.5452 68.7715 32.385 68.9455 32.3225C69.945 31.9622 70.9025 31.8554 71.6849 32.0168C72.4639 32.177 73.0757 32.6089 73.4998 33.2953C73.5283 33.3407 73.551 33.3759 73.551 33.3737C73.5499 33.3589 73.4919 33.1816 73.4441 33.0543C73.2519 32.527 72.9574 31.9725 72.6538 31.5667C72.3547 31.1667 71.9635 30.7883 71.5848 30.5303C70.9264 30.0826 70.1986 29.8291 69.2809 29.7303C69.0592 29.7064 68.4542 29.6973 68.1938 29.7132C67.0009 29.7894 65.7022 30.1258 64.4673 30.6803C64.4229 30.7008 64.3854 30.7224 64.3854 30.7269C64.3854 30.7326 64.4047 30.7372 64.4275 30.7372C64.4991 30.7372 64.755 30.769 64.9722 30.8053C65.6511 30.9178 66.1571 31.1372 66.4016 31.4247C66.4789 31.5145 66.5449 31.6372 66.554 31.7031L66.5597 31.7452L66.4425 31.7531C65.3736 31.8259 64.2216 32.2372 63.197 32.9134C62.7319 33.2203 62.4272 33.4873 62.0348 33.9305C61.9598 34.0146 61.8552 34.1249 61.8029 34.1737C61.1058 34.8294 60.1733 35.1499 59.1294 35.092C58.762 35.0715 58.3981 35.0124 58.0922 34.9226C58.0161 34.901 57.9456 34.8806 57.9342 34.8772C57.9239 34.8738 57.9148 34.876 57.9148 34.8806C57.9148 34.8863 57.9433 34.9624 57.9785 35.0499Z" fill="white"/>
</svg>
