<svg width="200" height="64" viewBox="0 0 200 64" fill="none" xmlns="http://www.w3.org/2000/svg">
<g clip-path="url(#clip0_299_12)">
<path d="M41.8236 13.2949H34V33.7671C34 34.1483 34.0323 34.5338 34.1309 34.902C36.0534 42.0826 45.6136 40.4708 46.9871 38.4868L53.681 28.9146C54.4163 27.8631 54.8107 26.6109 54.8107 25.3278V20.8056H46.9871V36.3745C46.9871 37.8003 45.8312 38.9563 44.4054 38.9563C42.9795 38.9563 41.8236 37.8003 41.8236 36.3745V13.2949Z" fill="black" fill-opacity="0.7"/>
<path d="M59.9753 53.9421L67.7988 53.9421L67.7988 33.47C67.7988 33.0887 67.7665 32.7033 67.6679 32.335C65.7454 25.1544 56.1852 26.7663 54.8117 28.7502L48.1178 38.3224C47.3825 39.374 46.9881 40.6261 46.9881 41.9093L46.9881 46.4315L54.8117 46.4315L54.8117 30.8626C54.8117 29.4367 55.9676 28.2808 57.3935 28.2808C58.8194 28.2808 59.9753 29.4367 59.9753 30.8626L59.9753 53.9421Z" fill="black" fill-opacity="0.7"/>
</g>
<path d="M83.7799 41.479C86.0574 41.479 87.2117 39.4511 87.2117 37.0488V29.9045H91.6418V37.5792C91.6418 42.1029 88.9588 45.7531 83.7799 45.7531C78.6322 45.7531 75.9492 42.1029 75.9492 37.5792V29.9045H80.3793V37.08C80.3793 39.4511 81.5025 41.479 83.7799 41.479Z" fill="black" fill-opacity="0.7"/>
<path d="M101.668 33.773C99.1722 33.773 98.0491 35.8009 98.0491 38.172V45.3475H93.619V37.6416C93.619 33.1491 96.2708 29.4677 101.668 29.4677C107.065 29.4677 109.78 33.1179 109.78 37.6416V45.3475H105.349V38.172C105.349 35.8009 104.195 33.773 101.668 33.773Z" fill="black" fill-opacity="0.7"/>
<path d="M114.762 27.5958C113.265 27.5958 112.017 26.3791 112.017 24.8504C112.017 23.3529 113.265 22.105 114.762 22.105C116.26 22.105 117.477 23.3529 117.477 24.8504C117.477 26.3791 116.26 27.5958 114.762 27.5958ZM112.547 29.9045H116.978V45.3475H112.547V29.9045Z" fill="black" fill-opacity="0.7"/>
<path d="M127.266 45.7531C122.618 45.7843 118.967 42.0717 118.967 37.6104C118.967 33.1179 122.618 29.4365 127.266 29.4677C130.23 29.4989 132.975 30.8404 134.379 33.8354L130.729 35.8321C130.043 34.4906 128.795 33.6482 127.266 33.6482C125.051 33.6482 123.398 35.4265 123.398 37.6104C123.398 39.7943 125.051 41.5725 127.266 41.5725C128.795 41.5725 130.043 40.7302 130.729 39.3887L134.379 41.3854C132.975 44.3804 130.23 45.7219 127.266 45.7531Z" fill="black" fill-opacity="0.7"/>
<path d="M143.106 45.7531C138.301 45.7531 134.682 42.4149 134.682 37.4856C134.682 33.0243 137.927 29.3429 142.7 29.3429C147.598 29.3429 150.437 32.9619 150.437 37.1736V38.4839H138.956C139.268 40.543 140.859 41.9157 143.074 41.9157C144.759 41.9157 146.163 41.1046 146.881 39.6695L150.281 41.3854C148.94 44.162 146.381 45.7531 143.106 45.7531ZM139.143 36.0193H146.038C145.851 34.4282 144.541 33.2115 142.669 33.2115C140.735 33.2115 139.455 34.4594 139.143 36.0193Z" fill="black" fill-opacity="0.7"/>
<path d="M152.745 22.7913H157.175V45.3475H152.745V22.7913Z" fill="black" fill-opacity="0.7"/>
<path d="M160.569 22.7913H164.999V45.3475H160.569V22.7913Z" fill="black" fill-opacity="0.7"/>
<defs>
<clipPath id="clip0_299_12">
<rect width="33.7979" height="25.5049" fill="white" transform="translate(34 20.8052)"/>
</clipPath>
</defs>
</svg>
