<svg width="200" height="64" viewBox="0 0 200 64" fill="none" xmlns="http://www.w3.org/2000/svg">
<path d="M133.516 38.7942C133.669 38.842 133.822 38.8755 133.975 38.8946C134.128 38.9042 134.281 38.909 134.434 38.909C134.817 38.909 135.185 38.8563 135.539 38.7511C135.893 38.6459 136.223 38.4977 136.529 38.3064C136.844 38.1055 137.122 37.8664 137.361 37.589C137.61 37.302 137.811 36.9864 137.964 36.642L140.833 39.5259C140.47 40.0424 140.049 40.5063 139.57 40.9176C139.102 41.3289 138.59 41.678 138.035 41.965C137.49 42.2519 136.911 42.4671 136.299 42.6106C135.697 42.7637 135.075 42.8402 134.434 42.8402C133.353 42.8402 132.335 42.6393 131.378 42.2376C130.431 41.8359 129.599 41.2763 128.882 40.5589C128.174 39.8415 127.614 38.9903 127.203 38.0051C126.792 37.0103 126.586 35.9199 126.586 34.7338C126.586 33.5191 126.792 32.4095 127.203 31.4052C127.614 30.4009 128.174 29.5448 128.882 28.837C129.599 28.1292 130.431 27.5792 131.378 27.187C132.335 26.7948 133.353 26.5988 134.434 26.5988C135.075 26.5988 135.701 26.6753 136.314 26.8283C136.926 26.9814 137.504 27.2014 138.05 27.4883C138.604 27.7753 139.121 28.1292 139.599 28.55C140.077 28.9613 140.498 29.4252 140.862 29.9417L133.516 38.7942ZM135.524 30.7165C135.343 30.6495 135.161 30.6065 134.979 30.5874C134.807 30.5682 134.625 30.5587 134.434 30.5587C133.898 30.5587 133.391 30.6591 132.913 30.86C132.445 31.0513 132.033 31.3287 131.679 31.6921C131.335 32.0556 131.062 32.4956 130.862 33.0121C130.661 33.5191 130.56 34.093 130.56 34.7338C130.56 34.8773 130.565 35.0399 130.575 35.2216C130.594 35.4034 130.618 35.5899 130.646 35.7812C130.685 35.9629 130.728 36.1399 130.775 36.312C130.823 36.4842 130.885 36.6373 130.962 36.7712L135.524 30.7165Z" fill="black" fill-opacity="0.7"/>
<path d="M124.992 42.5533H121.047V20.2588H124.992V42.5533Z" fill="black" fill-opacity="0.7"/>
<path d="M118.636 42.5534H117.689L116.168 40.4443C115.795 40.779 115.398 41.0947 114.977 41.3912C114.566 41.6782 114.131 41.9316 113.671 42.1516C113.212 42.3621 112.739 42.5294 112.251 42.6538C111.773 42.7781 111.285 42.8403 110.788 42.8403C109.707 42.8403 108.688 42.6586 107.732 42.2951C106.785 41.9316 105.952 41.4055 105.235 40.7169C104.527 40.0186 103.968 39.1673 103.556 38.163C103.145 37.1587 102.939 36.0157 102.939 34.7339C102.939 33.5383 103.145 32.4431 103.556 31.4483C103.968 30.444 104.527 29.5832 105.235 28.8658C105.952 28.1484 106.785 27.5936 107.732 27.2015C108.688 26.7997 109.707 26.5989 110.788 26.5989C111.285 26.5989 111.778 26.661 112.265 26.7854C112.753 26.9097 113.227 27.0819 113.686 27.3019C114.145 27.5219 114.58 27.7802 114.991 28.0767C115.412 28.3732 115.804 28.6936 116.168 29.038L117.689 27.2158H118.636V42.5534ZM114.69 34.7339C114.69 34.1983 114.585 33.6818 114.374 33.1844C114.174 32.6775 113.896 32.2327 113.542 31.8501C113.188 31.4579 112.772 31.1471 112.294 30.9175C111.825 30.6784 111.323 30.5588 110.788 30.5588C110.252 30.5588 109.745 30.6497 109.267 30.8314C108.798 31.0131 108.387 31.281 108.033 31.6349C107.688 31.9888 107.416 32.4288 107.215 32.9548C107.014 33.4714 106.914 34.0644 106.914 34.7339C106.914 35.4035 107.014 36.0013 107.215 36.5274C107.416 37.0439 107.688 37.4791 108.033 37.833C108.387 38.1869 108.798 38.4547 109.267 38.6365C109.745 38.8182 110.252 38.9091 110.788 38.9091C111.323 38.9091 111.825 38.7943 112.294 38.5647C112.772 38.3256 113.188 38.0147 113.542 37.6321C113.896 37.24 114.174 36.7952 114.374 36.2978C114.585 35.7909 114.69 35.2696 114.69 34.7339Z" fill="black" fill-opacity="0.7"/>
<path d="M102.651 30.243L99.7813 33.1269C99.6378 32.7252 99.4417 32.3665 99.1931 32.0508C98.9444 31.7256 98.6622 31.453 98.3465 31.233C98.0405 31.013 97.7057 30.8456 97.3422 30.7308C96.9787 30.6161 96.6057 30.5587 96.2231 30.5587C95.6875 30.5587 95.1805 30.6687 94.7023 30.8887C94.2336 31.1087 93.8223 31.4195 93.4684 31.8213C93.124 32.2134 92.8514 32.6821 92.6506 33.2273C92.4497 33.7725 92.3493 34.3751 92.3493 35.0351C92.3493 35.5708 92.4497 36.0729 92.6506 36.5416C92.8514 37.0103 93.124 37.4216 93.4684 37.7755C93.8223 38.1294 94.2336 38.4068 94.7023 38.6077C95.1805 38.8085 95.6875 38.909 96.2231 38.909C96.6057 38.909 96.974 38.8563 97.3279 38.7511C97.6818 38.6459 98.0118 38.4977 98.3179 38.3064C98.6335 38.1055 98.9109 37.8664 99.15 37.589C99.3987 37.302 99.5996 36.9864 99.7526 36.642L102.622 39.5259C102.259 40.0424 101.838 40.5063 101.36 40.9176C100.891 41.3289 100.379 41.678 99.8243 41.965C99.2791 42.2519 98.7005 42.4671 98.0883 42.6106C97.4857 42.7637 96.864 42.8402 96.2231 42.8402C95.1423 42.8402 94.1236 42.6393 93.1671 42.2376C92.2201 41.8263 91.388 41.2667 90.6706 40.5589C89.9628 39.8511 89.4032 39.0237 88.9919 38.0768C88.5806 37.1299 88.375 36.116 88.375 35.0351C88.375 33.8586 88.5806 32.7586 88.9919 31.7352C89.4032 30.7117 89.9628 29.8222 90.6706 29.0665C91.388 28.3013 92.2201 27.6987 93.1671 27.2587C94.1236 26.8188 95.1423 26.5988 96.2231 26.5988C96.864 26.5988 97.4905 26.6801 98.1026 26.8427C98.7244 27.0053 99.3126 27.2444 99.8674 27.56C100.432 27.8661 100.948 28.2439 101.417 28.6935C101.895 29.1431 102.306 29.6596 102.651 30.243Z" fill="black" fill-opacity="0.7"/>
<path d="M65.5 23.3468C65.5 22.2117 65.7168 21.1468 66.1504 20.1521C66.584 19.1573 67.1707 18.2901 67.9104 17.5504C68.6628 16.7979 69.5364 16.2049 70.5312 15.7713C71.526 15.3377 72.5909 15.1208 73.7259 15.1208H141V20.6112H73.7259C73.3433 20.6112 72.9862 20.6813 72.6546 20.8216C72.3231 20.9619 72.0297 21.1596 71.7747 21.4146C71.5323 21.657 71.341 21.9439 71.2008 22.2755C71.0605 22.6071 70.9903 22.9642 70.9903 23.3468C70.9903 23.7294 71.0605 24.0929 71.2008 24.4372C71.341 24.7688 71.5323 25.0621 71.7747 25.3172C72.0297 25.5595 72.3231 25.7508 72.6546 25.8911C72.9862 26.0314 73.3433 26.1015 73.7259 26.1015H79.2163C80.3513 26.1015 81.4162 26.3183 82.411 26.7519C83.4185 27.1728 84.2921 27.7594 85.0318 28.5119C85.7842 29.2516 86.3709 30.1252 86.7918 31.1327C87.2254 32.1275 87.4422 33.1924 87.4422 34.3274C87.4422 35.4625 87.2254 36.5274 86.7918 37.5222C86.3709 38.5169 85.7842 39.3905 85.0318 40.143C84.2921 40.8827 83.4185 41.4693 82.411 41.9029C81.4162 42.3366 80.3513 42.5534 79.2163 42.5534H67.0304V37.063H79.2163C79.5989 37.063 79.956 36.9929 80.2875 36.8526C80.6191 36.7123 80.9061 36.521 81.1484 36.2787C81.4035 36.0236 81.6011 35.7303 81.7414 35.3987C81.8817 35.0671 81.9519 34.71 81.9519 34.3274C81.9519 33.9448 81.8817 33.5877 81.7414 33.2562C81.6011 32.9246 81.4035 32.6376 81.1484 32.3953C80.9061 32.1402 80.6191 31.9426 80.2875 31.8023C79.956 31.662 79.5989 31.5918 79.2163 31.5918H73.7259C72.5909 31.5918 71.526 31.375 70.5312 30.9414C69.5364 30.5078 68.6628 29.9211 67.9104 29.1814C67.1707 28.429 66.584 27.5554 66.1504 26.5606C65.7168 25.5531 65.5 24.4818 65.5 23.3468Z" fill="black" fill-opacity="0.7"/>
</svg>
