<svg width="200" height="64" viewBox="0 0 200 64" fill="none" xmlns="http://www.w3.org/2000/svg">
<path d="M147.087 47.0561C142.95 47.0561 141.112 45.1029 141.112 41.2729V28.4809H139.848C139.35 28.4809 139.082 28.2511 139.082 27.8681V24.6893C139.082 24.3063 139.35 24.0765 139.848 24.0765H141.112V21.8551C141.112 21.3573 141.342 21.1275 141.725 21.0892L145.67 20.6296C146.053 20.5913 146.282 20.8977 146.282 21.3956V24.0765H148.121C148.619 24.0765 148.887 24.3063 148.887 24.6893V27.8681C148.887 28.2511 148.619 28.4809 148.121 28.4809H146.282V41.5027C146.282 42.4985 146.78 43.0347 147.853 43.0347H148.236C148.733 43.0347 149.002 43.3028 149.002 43.8007V46.2902C149.002 46.788 148.733 47.0561 148.236 47.0561H147.087Z" fill="black" fill-opacity="0.7"/>
<path d="M128.175 47.4394C125.456 47.4394 124.23 45.9074 124.23 41.6562V24.8428C124.23 24.3449 124.499 24.0768 124.996 24.0768H128.635C129.133 24.0768 129.401 24.3449 129.401 24.8428V41.0051C129.401 42.3839 129.86 42.8435 130.856 42.8435C131.852 42.8435 132.312 42.3839 132.312 41.0051V24.8428C132.312 24.3449 132.541 24.0768 132.924 24.0768H137.252C137.635 24.0768 137.865 24.3449 137.865 24.8428V46.2904C137.865 46.7883 137.635 47.0564 137.252 47.0564H132.924C132.541 47.0564 132.312 46.7883 132.312 46.2904V44.4521C131.546 46.367 130.129 47.4394 128.175 47.4394Z" fill="black" fill-opacity="0.7"/>
<path d="M115.969 47.4394C111.143 47.4394 109.496 45.4861 109.496 40.5072V30.6259C109.496 26.3364 111.22 23.6937 116.084 23.6937C120.68 23.6937 122.441 25.647 122.441 30.6259V32.3877C122.441 32.7707 122.25 33.0005 121.905 33.0005H117.96C117.654 33.0005 117.462 32.7707 117.462 32.3877V29.745C117.462 28.4812 117.041 27.9833 116.084 27.9833C115.088 27.9833 114.667 28.4812 114.667 29.745V41.388C114.667 42.6519 115.088 43.1498 116.084 43.1498C117.041 43.1498 117.462 42.6519 117.462 41.388V38.7071C117.462 38.2858 117.654 38.056 117.96 38.056H121.905C122.25 38.056 122.441 38.2858 122.441 38.7071V40.5072C122.441 45.4861 120.565 47.4394 115.969 47.4394Z" fill="black" fill-opacity="0.7"/>
<path d="M99.2417 47.0564C98.8587 47.0564 98.6289 46.7883 98.6289 46.2904V24.8427C98.6289 24.3448 98.8587 24.0767 99.2417 24.0767H103.57C103.953 24.0767 104.182 24.3448 104.182 24.8427V27.8301C104.757 25.3023 105.944 23.6937 107.668 23.6937C108.28 23.6937 108.778 23.7703 108.778 24.5746V28.7492C108.778 29.2471 108.51 29.5152 108.012 29.5152H105.753C104.642 29.5152 104.182 30.128 104.182 31.5068V46.2904C104.182 46.7883 103.953 47.0564 103.57 47.0564H99.2417Z" fill="black" fill-opacity="0.7"/>
<path d="M90.1477 47.4394C85.1305 47.4394 83.4453 45.218 83.4453 40.5072V30.9323C83.4453 26.6428 85.1688 23.6937 90.2243 23.6937C95.0117 23.6937 96.7735 26.2981 96.7735 30.9323V34.9154C96.7735 35.9112 96.2373 36.4474 95.2415 36.4474H88.6157V41.5795C88.6157 42.8434 89.037 43.5328 90.2243 43.5328C91.3733 43.5328 91.7946 42.8434 91.7946 41.5795V39.7029C91.7946 39.2816 91.9861 39.0518 92.2925 39.0518H96.2373C96.582 39.0518 96.7735 39.2816 96.7735 39.7029V40.6604C96.7735 45.3712 94.9351 47.4394 90.1477 47.4394ZM88.6157 32.4643H91.7946V29.5535C91.7946 28.2897 91.3733 27.6003 90.2243 27.6003C89.037 27.6003 88.6157 28.2897 88.6157 29.5535V32.4643Z" fill="black" fill-opacity="0.7"/>
<path d="M71.8713 47.0564C71.5266 47.0564 71.3351 46.8266 71.2585 46.4053L67.3136 24.7279C67.237 24.3066 67.4285 24.0768 67.7732 24.0768H71.5649C71.8713 24.0768 72.0628 24.3066 72.1394 24.7279L74.782 42.269L77.3864 24.7279C77.463 24.3066 77.6545 24.0768 78.0375 24.0768H82.1738C82.5185 24.0768 82.71 24.3066 82.6334 24.7279L78.6886 46.4053C78.612 46.8266 78.4205 47.0564 78.0758 47.0564H71.8713Z" fill="black" fill-opacity="0.7"/>
<path d="M59.1722 47.4395C53.9252 47.4395 51.9336 45.1415 51.9336 39.3966V27.9068C51.9336 22.9278 53.9252 19.8639 59.1722 19.8639C64.4192 19.8639 66.4108 22.1619 66.4108 27.9068V39.3966C66.4108 45.1415 64.4192 47.4395 59.1722 47.4395ZM59.1722 42.4605C60.3595 42.4605 60.8574 41.9243 60.8574 40.4307V26.9876C60.8574 25.4939 60.3595 24.8428 59.1722 24.8428C57.9849 24.8428 57.487 25.4939 57.487 26.9876V40.4307C57.487 41.9243 57.9849 42.4605 59.1722 42.4605Z" fill="black" fill-opacity="0.7"/>
</svg>
