<svg width="98" height="28" viewBox="0 0 98 28" fill="none" xmlns="http://www.w3.org/2000/svg">
<path d="M95.153 27.1925C91.0167 27.1925 89.1783 25.2392 89.1783 21.4093V8.61729H87.9144C87.4165 8.61729 87.1484 8.38749 87.1484 8.0045V4.82565C87.1484 4.44266 87.4165 4.21286 87.9144 4.21286H89.1783V1.99149C89.1783 1.4936 89.4081 1.26381 89.7911 1.22551L93.7359 0.765914C94.1189 0.727615 94.3487 1.03401 94.3487 1.5319V4.21286H96.1871C96.685 4.21286 96.9531 4.44266 96.9531 4.82565V8.0045C96.9531 8.38749 96.685 8.61729 96.1871 8.61729H94.3487V21.6391C94.3487 22.6349 94.8466 23.1711 95.919 23.1711H96.302C96.7999 23.1711 97.068 23.4392 97.068 23.937V26.4265C97.068 26.9244 96.7999 27.1925 96.302 27.1925H95.153Z" fill="black"/>
<path d="M76.2417 27.5755C73.5225 27.5755 72.2969 26.0435 72.2969 21.7923V4.97888C72.2969 4.48098 72.565 4.21289 73.0629 4.21289H76.7013C77.1992 4.21289 77.4673 4.48098 77.4673 4.97888V21.1412C77.4673 22.52 77.9269 22.9796 78.9227 22.9796C79.9185 22.9796 80.3781 22.52 80.3781 21.1412V4.97888C80.3781 4.48098 80.6078 4.21289 80.9908 4.21289H85.3187C85.7017 4.21289 85.9315 4.48098 85.9315 4.97888V26.4265C85.9315 26.9244 85.7017 27.1925 85.3187 27.1925H80.9908C80.6078 27.1925 80.3781 26.9244 80.3781 26.4265V24.5882C79.6121 26.5031 78.195 27.5755 76.2417 27.5755Z" fill="black"/>
<path d="M64.0351 27.5757C59.2094 27.5757 57.5625 25.6224 57.5625 20.6435V10.7623C57.5625 6.47274 59.286 3.83008 64.15 3.83008C68.7459 3.83008 70.5077 5.78335 70.5077 10.7623V12.524C70.5077 12.907 70.3162 13.1368 69.9715 13.1368H66.0267C65.7203 13.1368 65.5288 12.907 65.5288 12.524V9.88138C65.5288 8.6175 65.1075 8.11961 64.15 8.11961C63.1542 8.11961 62.7329 8.6175 62.7329 9.88138V21.5244C62.7329 22.7883 63.1542 23.2862 64.15 23.2862C65.1075 23.2862 65.5288 22.7883 65.5288 21.5244V18.8434C65.5288 18.4221 65.7203 18.1924 66.0267 18.1924H69.9715C70.3162 18.1924 70.5077 18.4221 70.5077 18.8434V20.6435C70.5077 25.6224 68.631 27.5757 64.0351 27.5757Z" fill="black"/>
<path d="M47.3081 27.1927C46.9251 27.1927 46.6953 26.9246 46.6953 26.4267V4.97906C46.6953 4.48117 46.9251 4.21307 47.3081 4.21307H51.6359C52.0189 4.21307 52.2487 4.48117 52.2487 4.97906V7.96641C52.8232 5.43865 54.0105 3.83008 55.734 3.83008C56.3468 3.83008 56.8447 3.90668 56.8447 4.71096V8.8856C56.8447 9.38349 56.5766 9.65159 56.0787 9.65159H53.819C52.7083 9.65159 52.2487 10.2644 52.2487 11.6432V26.4267C52.2487 26.9246 52.0189 27.1927 51.6359 27.1927H47.3081Z" fill="black"/>
<path d="M38.2141 27.5757C33.1969 27.5757 31.5117 25.3543 31.5117 20.6435V11.0687C31.5117 6.77913 33.2352 3.83008 38.2907 3.83008C43.0781 3.83008 44.8399 6.43444 44.8399 11.0687V15.0518C44.8399 16.0476 44.3037 16.5838 43.3079 16.5838H36.6821V21.7159C36.6821 22.9798 37.1034 23.6692 38.2907 23.6692C39.4397 23.6692 39.861 22.9798 39.861 21.7159V19.8392C39.861 19.4179 40.0525 19.1881 40.3589 19.1881H44.3037C44.6484 19.1881 44.8399 19.4179 44.8399 19.8392V20.7967C44.8399 25.5075 43.0015 27.5757 38.2141 27.5757ZM36.6821 12.6006H39.861V9.68989C39.861 8.42601 39.4397 7.73662 38.2907 7.73662C37.1034 7.73662 36.6821 8.42601 36.6821 9.68989V12.6006Z" fill="black"/>
<path d="M19.9377 27.1925C19.593 27.1925 19.4015 26.9627 19.3249 26.5414L15.38 4.86398C15.3034 4.44269 15.4949 4.21289 15.8396 4.21289H19.6313C19.9377 4.21289 20.1292 4.44269 20.2058 4.86398L22.8484 22.4051L25.4528 4.86398C25.5294 4.44269 25.7209 4.21289 26.1039 4.21289H30.2402C30.5849 4.21289 30.7764 4.44269 30.6998 4.86398L26.755 26.5414C26.6784 26.9627 26.4869 27.1925 26.1422 27.1925H19.9377Z" fill="black"/>
<path d="M7.23858 27.5756C1.99157 27.5756 0 25.2776 0 19.5327V8.04287C0 3.06395 1.99157 0 7.23858 0C12.4856 0 14.4772 2.29796 14.4772 8.04287V19.5327C14.4772 25.2776 12.4856 27.5756 7.23858 27.5756ZM7.23858 22.5966C8.42587 22.5966 8.92376 22.0605 8.92376 20.5668V7.12369C8.92376 5.63001 8.42587 4.97892 7.23858 4.97892C6.0513 4.97892 5.55341 5.63001 5.55341 7.12369V20.5668C5.55341 22.0605 6.0513 22.5966 7.23858 22.5966Z" fill="black"/>
</svg>
