<svg width="200" height="64" viewBox="0 0 200 64" fill="none" xmlns="http://www.w3.org/2000/svg">
<path d="M161.775 41.6727V25.5151H165.908V27.8766C166.747 26.0744 168.363 25.1422 170.849 25.1422C174.329 25.1422 177.001 27.7212 177.001 31.7917V41.6727H172.806V32.8171C172.806 30.0206 171.408 28.8088 169.326 28.8088C167.555 28.8088 165.97 30.0206 165.97 32.8171V41.6727H161.775Z" fill="black" fill-opacity="0.7"/>
<path d="M152.04 42.0767C147.037 42.0767 143.682 38.2859 143.682 33.6251C143.682 28.9642 147.193 25.1112 152.04 25.1112C156.887 25.1112 160.243 28.9642 160.243 33.6251C160.243 34.0911 160.212 34.5883 160.119 35.1165H148.032C148.498 37.0119 149.927 38.3481 152.04 38.3481C153.842 38.3481 155.241 37.4159 155.986 36.173L159.249 38.6277C157.944 40.6474 155.241 42.0767 152.04 42.0767ZM148.032 31.9782H156.017C155.551 30.176 154.029 28.7156 151.978 28.7156C149.989 28.7156 148.498 30.0517 148.032 31.9782Z" fill="black" fill-opacity="0.7"/>
<path d="M136.704 42.0767C133.969 42.0767 131.763 41.1446 129.992 39.2492L132.82 36.6701C134.001 38.0063 135.243 38.6588 136.611 38.6588C138.04 38.6588 138.848 37.9441 138.848 36.9809C138.848 36.1419 138.444 35.6758 135.896 35.0855C131.577 34.0601 130.924 32.1025 130.924 30.0517C130.924 27.2241 133.162 25.1112 136.952 25.1112C139.562 25.1112 141.303 25.7637 142.949 27.9077L139.904 30.2382C139.127 28.9953 138.133 28.4981 137.046 28.4981C135.896 28.4981 135.026 28.9331 135.026 29.9274C135.026 30.4867 135.274 30.9839 137.201 31.4811C141.893 32.6929 142.98 34.4329 142.98 36.8566C142.98 39.8395 140.277 42.0767 136.704 42.0767Z" fill="black" fill-opacity="0.7"/>
<path d="M121.353 42.0768C116.35 42.0768 112.746 38.286 112.746 33.6251C112.746 28.9642 116.35 25.1423 121.353 25.1423C126.356 25.1423 129.96 28.9642 129.96 33.6251C129.96 38.286 126.356 42.0768 121.353 42.0768ZM116.941 33.6251C116.941 36.142 118.681 38.2549 121.353 38.2549C124.025 38.2549 125.765 36.142 125.765 33.6251C125.765 31.1082 124.025 28.9642 121.353 28.9642C118.681 28.9642 116.941 31.1082 116.941 33.6251Z" fill="black" fill-opacity="0.7"/>
<path d="M96.1074 41.6727V25.5151H100.24V27.8766C101.079 26.0744 102.695 25.1422 105.181 25.1422C108.661 25.1422 111.333 27.7212 111.333 31.7917V41.6727H107.138V32.8171C107.138 30.0206 105.74 28.8088 103.658 28.8088C101.887 28.8088 100.302 30.0206 100.302 32.8171V41.6727H96.1074Z" fill="black" fill-opacity="0.7"/>
<path d="M85.9547 42.0767C80.9521 42.0767 77.3477 38.2858 77.3477 33.625C77.3477 28.9641 80.9521 25.1422 85.9547 25.1422C90.9574 25.1422 94.5618 28.9641 94.5618 33.625C94.5618 38.2858 90.9574 42.0767 85.9547 42.0767ZM81.5424 33.625C81.5424 36.1418 83.2825 38.2548 85.9547 38.2548C88.6269 38.2548 90.367 36.1418 90.367 33.625C90.367 31.1081 88.6269 28.9641 85.9547 28.9641C83.2825 28.9641 81.5424 31.1081 81.5424 33.625Z" fill="black" fill-opacity="0.7"/>
<path d="M50 41.6727V25.5151H54.1326V27.8766C54.9716 26.0744 56.5874 25.1422 59.0731 25.1422C61.3414 25.1422 63.2679 26.2297 64.3244 28.1873C65.4119 26.2297 66.9655 25.1422 69.7931 25.1422C73.2732 25.1422 75.9455 27.7212 75.9455 31.7917V41.6727H71.7507V32.8171C71.7507 30.0206 70.4146 28.8088 68.5192 28.8088C66.5616 28.8088 65.2255 29.7099 65.2255 32.8171V41.6727H61.0307V32.8171C61.0307 30.0206 59.6324 28.8088 57.5506 28.8088C55.7795 28.8088 54.1948 30.0206 54.1948 32.8171V41.6727H50Z" fill="black" fill-opacity="0.7"/>
</svg>
