<svg width="200" height="64" viewBox="0 0 200 64" fill="none" xmlns="http://www.w3.org/2000/svg">
<path d="M102.204 40.8511L97.6873 22.4704H101.311L104.278 34.5229L107.245 22.4704H111.131L114.099 34.5229L117.066 22.4704H120.689L116.173 40.8511H112.287L109.188 28.2735L106.09 40.8511H102.204ZM124.464 41.2187C122.1 41.2187 120.157 39.7745 120.157 37.4113C120.157 34.2603 123.02 33.4988 126.118 32.9474C127.772 32.6586 128.796 32.6848 128.534 31.3982C128.376 30.6367 127.72 30.2691 126.381 30.2691C124.805 30.2691 124.201 31.2144 124.149 32.0021L120.289 31.7395C120.289 30.9518 120.604 27.3019 126.381 27.3019C130.582 27.3019 132.472 29.14 132.472 33.0787V40.8511H128.718V38.1728C128.061 39.827 126.748 41.2187 124.464 41.2187ZM124.044 36.9386C124.044 37.8577 124.726 38.2515 125.645 38.2515C127.221 38.2515 128.718 36.9911 128.718 35.1006V34.234C128.297 34.7329 127.483 35.0218 126.013 35.3631C124.726 35.652 124.044 36.1509 124.044 36.9386ZM134.3 40.8511V22.2079H138.186V40.8511H134.3ZM145.646 40.8511C142.862 40.8511 141.208 39.6432 141.208 36.2822V30.6892H138.976V27.722H141.208V23.7571L144.963 23.4945V27.722H148.376V30.6892H144.963V35.9933C144.963 37.6213 145.225 37.8839 146.748 37.8839H148.376V40.8511H145.646ZM155.3 41.2712C152.149 41.2712 148.657 39.3806 148.657 34.3653C148.657 29.3763 152.149 27.3019 155.3 27.3019C158.451 27.3019 161.549 29.3763 161.549 34.3653V35.0743H152.543C152.543 37.1749 153.462 38.304 155.3 38.304C157.138 38.304 157.663 37.2275 157.794 36.7023L161.549 36.9649C161.418 39.5907 158.451 41.2712 155.3 41.2712ZM152.543 32.7636H158.031C158.031 31.4507 157.138 30.2691 155.3 30.2691C153.462 30.2691 152.543 31.4507 152.543 32.7636ZM162.613 40.8511V27.722H166.5V30.1903C167.156 28.431 168.364 27.722 169.808 27.722H171.567V30.6892H169.02C166.92 30.6892 166.5 32.0809 166.5 34.9693V40.8511H162.613ZM170.538 40.8511V36.6498H175.002V40.8511H170.538Z" fill="black" fill-opacity="0.7"/>
<path fill-rule="evenodd" clip-rule="evenodd" d="M66.1129 17.0974H51.999L45 28.2V46.9038L55.6719 46.9039L66.1123 31.6541V46.9039L66.1129 46.9038V17.0974Z" fill="black" fill-opacity="0.7"/>
<path fill-rule="evenodd" clip-rule="evenodd" d="M66.1172 31.6464V46.9048H87.2301V17.0984H73.0733L66.1172 31.6464ZM87.2295 31.6542V46.904H76.7891L87.2295 31.6542Z" fill="black" fill-opacity="0.7"/>
</svg>
