<svg width="61" height="61" viewBox="0 0 61 61" fill="none" xmlns="http://www.w3.org/2000/svg">
<path d="M11.6495 44.0253C9.03095 41.2455 7.625 38.1258 7.625 33.0687C7.625 24.1743 13.8686 16.2006 22.9527 12.2598L25.2217 15.7612C16.7446 20.3479 15.0878 26.2969 14.4256 30.0484C15.7904 29.3426 17.5771 29.0943 19.3286 29.2567C23.9147 29.6819 27.5293 33.4466 27.5293 38.1259C27.5293 43.0389 23.5464 47.0217 18.6334 47.0217C15.906 47.0217 13.2979 45.775 11.6495 44.0253ZM37.0661 44.0253C34.4477 41.2455 33.0417 38.1258 33.0417 33.0687C33.0417 24.1743 39.2853 16.2006 48.3694 12.2598L50.6384 15.7612C42.1612 20.3479 40.5045 26.2969 39.8421 30.0484C41.207 29.3426 42.9938 29.0943 44.7453 29.2567C49.3315 29.6819 52.946 33.4466 52.946 38.1259C52.946 43.0389 48.9632 47.0217 44.0501 47.0217C41.3227 47.0217 38.7147 45.775 37.0661 44.0253Z" fill="black"/>
</svg>
