<svg width="200" height="64" viewBox="0 0 200 64" fill="none" xmlns="http://www.w3.org/2000/svg">
<path d="M163.537 45.6613C158.584 45.6613 155.423 43.2499 155.293 39.7305L159.627 39.4047C159.757 40.9688 161.126 41.979 163.505 41.979C165.395 41.979 166.503 41.3273 166.503 40.3171C166.503 37.2865 156.108 40.0564 156.108 33.5065C156.108 30.1175 158.877 28.3252 163.016 28.3252C167.448 28.3252 170.185 30.4107 170.315 33.5065L165.949 33.8323C165.818 32.6592 164.873 32.0075 163.081 32.0075C161.452 32.0075 160.605 32.5615 160.605 33.3435C160.605 36.0808 171 33.6042 171 40.1542C171 43.5758 168.165 45.6613 163.537 45.6613Z" fill="black" fill-opacity="0.7"/>
<path d="M144.979 45.1399V28.8466H149.378V32.2682C150.062 30.0523 151.268 28.8466 152.995 28.8466H155.993V32.5289H153.321C150.42 32.5289 149.378 34.0604 149.378 38.3619V45.1399H144.979Z" fill="black" fill-opacity="0.7"/>
<path d="M135.945 45.6612C130.698 45.6612 127.146 42.1744 127.146 36.9605C127.146 31.9096 130.568 28.3251 135.326 28.3251C140.116 28.3251 143.472 31.9096 143.472 37.0583V38.2966H131.676C131.676 40.4799 133.305 41.9789 135.684 41.9789C137.314 41.9789 138.552 41.262 139.041 40.0237L143.472 40.3496C142.984 43.5431 140.018 45.6612 135.945 45.6612ZM138.943 35.1031C138.943 33.2457 137.476 32.0074 135.326 32.0074C133.175 32.0074 131.676 33.2782 131.676 35.1031H138.943Z" fill="black" fill-opacity="0.7"/>
<path d="M121.385 35.5919C121.385 33.2457 120.505 32.0074 118.876 32.0074C116.791 32.0074 115.422 34.0603 115.422 37.2212V45.1398H111.023V35.5919C111.023 33.2457 110.143 32.0074 108.514 32.0074C106.428 32.0074 105.059 34.0603 105.059 37.2212V45.1398H100.66V28.8465H105.059V31.5512C106.07 29.5308 107.862 28.3251 110.175 28.3251C112.587 28.3251 114.216 29.6285 114.966 32.04C116.008 29.7589 118.029 28.3251 120.538 28.3251C123.894 28.3251 125.784 30.8668 125.784 35.3964V45.1398H121.385V35.5919Z" fill="black" fill-opacity="0.7"/>
<path d="M89.9143 45.6612C85.3196 45.6612 82.2891 42.5654 82.2891 37.873C82.2891 32.431 86.2321 28.3251 91.4785 28.3251C96.0732 28.3251 99.1364 31.4534 99.1364 36.1459C99.1364 41.5878 95.1608 45.6612 89.9143 45.6612ZM90.2076 41.9789C92.782 41.9789 94.672 39.5349 94.672 36.1785C94.672 33.5389 93.4011 32.0074 91.2504 32.0074C88.6761 32.0074 86.7534 34.484 86.7534 37.8078C86.7534 40.3821 88.0895 41.9789 90.2076 41.9789Z" fill="black" fill-opacity="0.7"/>
<path d="M72.2913 45.6612C67.6966 45.6612 64.666 42.5654 64.666 37.873C64.666 32.431 68.609 28.3251 73.8555 28.3251C78.4502 28.3251 81.5133 31.4534 81.5133 36.1459C81.5133 41.5878 77.5377 45.6612 72.2913 45.6612ZM72.5846 41.9789C75.1589 41.9789 77.049 39.5349 77.049 36.1785C77.049 33.5389 75.7781 32.0074 73.6273 32.0074C71.053 32.0074 69.1304 34.484 69.1304 37.8078C69.1304 40.3821 70.4664 41.9789 72.5846 41.9789Z" fill="black" fill-opacity="0.7"/>
<path d="M47.1289 45.1398V22.3291H53.6462C58.9905 22.3291 62.4772 24.8057 62.4772 28.6509C62.4772 30.9972 61.2063 32.6917 59.186 33.3108C62.021 33.93 63.7807 35.8852 63.7807 38.6224C63.7807 42.5328 60.2287 45.1398 54.9497 45.1398H47.1289ZM54.9497 41.4575C57.6544 41.4575 59.2837 40.3169 59.2837 38.4269C59.2837 36.5369 57.6544 35.3964 54.9497 35.3964H51.4629V41.4575H54.9497ZM53.6462 31.7467C56.4161 31.7467 57.9803 30.7039 57.9803 28.879C57.9803 27.0542 56.4161 26.0114 53.6462 26.0114H51.4629V31.7467H53.6462Z" fill="black" fill-opacity="0.7"/>
<path d="M91.0488 33.9719L91.8369 36.1017L93.9667 36.8898L91.8369 37.6779L91.0488 39.8077L90.2607 37.6779L88.1309 36.8898L90.2607 36.1017L91.0488 33.9719Z" fill="black" fill-opacity="0.7"/>
<path d="M73.5429 33.9719L74.331 36.1017L76.4608 36.8898L74.331 37.6779L73.5429 39.8077L72.7548 37.6779L70.625 36.8898L72.7548 36.1017L73.5429 33.9719Z" fill="black" fill-opacity="0.7"/>
</svg>
