<svg width="200" height="64" viewBox="0 0 200 64" fill="none" xmlns="http://www.w3.org/2000/svg">
<path d="M163.889 46.0686C159.022 46.0686 155.703 42.6867 155.703 37.6297C155.703 32.7306 158.895 29.2539 163.384 29.2539C167.903 29.2539 171.001 32.699 171.001 37.7245V38.7043H159.464C159.464 41.2012 161.171 42.908 163.7 42.908C165.47 42.908 166.829 42.0546 167.303 40.6323L170.969 40.9484C170.463 44.0458 167.65 46.0686 163.889 46.0686ZM167.271 35.9229C167.271 33.8369 165.659 32.4146 163.352 32.4146C161.045 32.4146 159.464 33.8369 159.464 35.9229H167.271Z" fill="black" fill-opacity="0.7"/>
<path d="M148.236 46.0686C145.739 46.0686 143.811 44.7411 142.895 42.5603V51.8842H139.26V29.7596H142.895V32.7622C143.811 30.5814 145.739 29.2539 148.236 29.2539C152.282 29.2539 155.126 32.7306 155.126 37.6613C155.126 42.5919 152.282 46.0686 148.236 46.0686ZM147.161 42.908C149.69 42.908 151.397 40.8219 151.397 37.6613C151.397 34.5006 149.69 32.4146 147.161 32.4146C144.633 32.4146 142.926 34.5006 142.926 37.6613C142.926 40.8219 144.633 42.908 147.161 42.908Z" fill="black" fill-opacity="0.7"/>
<path d="M133.219 45.5628V29.7595H136.854V45.5628H133.219ZM132.871 27.4522V23.7227H137.233V27.4522H132.871Z" fill="black" fill-opacity="0.7"/>
<path d="M122.738 45.5628V29.7595H126.373V33.2995C127.005 30.9922 128.206 29.7595 129.881 29.7595H132.789V32.9202H130.197C127.479 32.9202 126.373 34.6269 126.373 38.7674V45.5628H122.738Z" fill="black" fill-opacity="0.7"/>
<path d="M102.973 45.5629V23.4382H110.432C116.816 23.4382 121.241 27.958 121.241 34.5005C121.241 41.0431 116.816 45.5629 110.432 45.5629H102.973ZM110.432 42.4022C114.635 42.4022 117.512 39.1783 117.512 34.5005C117.512 29.8228 114.635 26.5989 110.432 26.5989H106.702V42.4022H110.432Z" fill="black" fill-opacity="0.7"/>
<path fill-rule="evenodd" clip-rule="evenodd" d="M69.4572 22.1562C69.4572 20.5993 68.195 19.3372 66.6381 19.3372H63.8191C62.2621 19.3372 61 20.5993 61 22.1562V27.7943C61 29.3512 62.2621 30.6134 63.8191 30.6134H66.6381C68.195 30.6134 69.4572 29.3512 69.4572 27.7943V22.1562ZM84.9624 22.1562C84.9624 20.5993 83.7003 19.3372 82.1434 19.3372H73.6862C72.1293 19.3372 70.8672 20.5993 70.8672 22.1562V27.7943C70.8672 29.3512 72.1293 30.6134 73.6862 30.6134H77.9153C79.4722 30.6134 80.7344 31.8755 80.7344 33.4324V36.2515C80.7344 37.8085 79.4722 39.0706 77.9153 39.0706H63.819C62.262 39.0706 60.9999 40.3327 60.9999 41.8896V47.5277C60.9999 49.0847 62.262 50.3468 63.819 50.3468H80.7333C82.2902 50.3468 83.5523 49.0847 83.5523 47.5277V43.2991C83.5523 41.7422 84.8144 40.4801 86.3714 40.4801H89.1915C90.7484 40.4801 92.0106 39.2179 92.0106 37.661V32.0229C92.0106 30.466 90.7485 29.2039 89.1915 29.2039H87.7815C86.2246 29.2039 84.9624 27.9417 84.9624 26.3848V22.1562Z" fill="black" fill-opacity="0.7"/>
</svg>
