<svg width="278" height="90" viewBox="0 0 278 90" fill="none" xmlns="http://www.w3.org/2000/svg">
<path d="M227.317 63.9888C220.432 63.9888 216.039 60.6369 215.857 55.745L221.882 55.2921C222.063 57.4662 223.965 58.8704 227.272 58.8704C229.899 58.8704 231.439 57.9645 231.439 56.5603C231.439 52.3479 216.99 56.198 216.99 47.0936C216.99 42.3829 220.84 39.8916 226.592 39.8916C232.753 39.8916 236.557 42.7905 236.739 47.0936L230.669 47.5465C230.488 45.9159 229.174 45.01 226.683 45.01C224.418 45.01 223.241 45.78 223.241 46.8671C223.241 50.6719 237.69 47.2295 237.69 56.3339C237.69 61.0899 233.749 63.9888 227.317 63.9888Z" fill="black"/>
<path d="M201.52 63.2639V40.6162H207.634V45.3722C208.586 42.2921 210.262 40.6162 212.662 40.6162H216.829V45.7346H213.115C209.084 45.7346 207.634 47.8635 207.634 53.8425V63.2639H201.52Z" fill="black"/>
<path d="M188.962 63.9888C181.67 63.9888 176.732 59.1422 176.732 51.8949C176.732 44.8741 181.488 39.8916 188.102 39.8916C194.76 39.8916 199.425 44.8741 199.425 52.0308V53.752H183.028C183.028 56.7868 185.293 58.8704 188.6 58.8704C190.865 58.8704 192.586 57.8739 193.265 56.1527L199.425 56.6056C198.746 61.0446 194.624 63.9888 188.962 63.9888ZM193.129 49.3131C193.129 46.7312 191.091 45.01 188.102 45.01C185.112 45.01 183.028 46.7765 183.028 49.3131H193.129Z" fill="black"/>
<path d="M168.728 49.9925C168.728 46.7312 167.505 45.01 165.24 45.01C162.341 45.01 160.439 47.8636 160.439 52.2573V63.2641H154.324V49.9925C154.324 46.7312 153.101 45.01 150.836 45.01C147.937 45.01 146.035 47.8636 146.035 52.2573V63.2641H139.92V40.6163H146.035V44.3759C147.439 41.5675 149.93 39.8916 153.146 39.8916C156.498 39.8916 158.763 41.7034 159.805 45.0553C161.254 41.8846 164.062 39.8916 167.55 39.8916C172.216 39.8916 174.843 43.4246 174.843 49.7207V63.2641H168.728V49.9925Z" fill="black"/>
<path d="M124.98 63.9888C118.593 63.9888 114.381 59.6857 114.381 53.1632C114.381 45.5988 119.862 39.8916 127.154 39.8916C133.541 39.8916 137.799 44.24 137.799 50.7625C137.799 58.3269 132.273 63.9888 124.98 63.9888ZM125.388 58.8704C128.966 58.8704 131.593 55.4732 131.593 50.8078C131.593 47.1389 129.827 45.01 126.837 45.01C123.259 45.01 120.586 48.4524 120.586 53.0726C120.586 56.6509 122.443 58.8704 125.388 58.8704Z" fill="black"/>
<path d="M100.484 63.9888C94.0972 63.9888 89.8848 59.6857 89.8848 53.1632C89.8848 45.5988 95.3655 39.8916 102.658 39.8916C109.045 39.8916 113.303 44.24 113.303 50.7625C113.303 58.3269 107.776 63.9888 100.484 63.9888ZM100.892 58.8704C104.47 58.8704 107.097 55.4732 107.097 50.8078C107.097 47.1389 105.331 45.01 102.341 45.01C98.7627 45.01 96.0902 48.4524 96.0902 53.0726C96.0902 56.6509 97.9474 58.8704 100.892 58.8704Z" fill="black"/>
<path d="M65.5098 63.2635V31.5566H74.5689C81.9973 31.5566 86.8439 34.9991 86.8439 40.344C86.8439 43.6052 85.0774 45.9606 82.2691 46.8212C86.2098 47.6818 88.6558 50.3996 88.6558 54.2044C88.6558 59.6398 83.7185 63.2635 76.3807 63.2635H65.5098ZM76.3807 58.1451C80.1402 58.1451 82.405 56.5597 82.405 53.9326C82.405 51.3055 80.1402 49.7201 76.3807 49.7201H71.5341V58.1451H76.3807ZM74.5689 44.647C78.419 44.647 80.5932 43.1976 80.5932 40.661C80.5932 38.1245 78.419 36.675 74.5689 36.675H71.5341V44.647H74.5689Z" fill="black"/>
<path d="M126.558 47.7402L127.653 50.7007L130.614 51.7961L127.653 52.8916L126.558 55.852L125.462 52.8916L122.502 51.7961L125.462 50.7007L126.558 47.7402Z" fill="black"/>
<path d="M102.224 47.7402L103.319 50.7007L106.28 51.7961L103.319 52.8916L102.224 55.852L101.128 52.8916L98.168 51.7961L101.128 50.7007L102.224 47.7402Z" fill="black"/>
</svg>
