<svg width="256" height="256" viewBox="0 0 256 256" fill="none" xmlns="http://www.w3.org/2000/svg">
<rect width="256" height="256" fill="black"/>
<path d="M111.931 87.8751V40L191.822 40L173.847 51.9688L213.792 73.9116L213.847 97.8492L175.444 121.787V99.8439L131.979 76.38L111.931 87.8751Z" fill="white"/>
<path d="M112.53 159.688L70.9389 182.928L32 113.256L51.2251 123.099L50.9393 77.5674L71.8404 65.8526L111.947 87.8689L92.4936 98.7143L92.973 147.713L112.53 159.688Z" fill="white"/>
<path d="M175.444 121.787L216 146.021L175.056 214.537L173.979 192.987L134.641 216L112.53 203.779L112.53 159.688L130.505 169.662L175.444 144.727L175.444 121.787Z" fill="white"/>
</svg>
