<?xml version="1.0" encoding="utf-8"?>
<!-- Generator: Adobe Illustrator 26.0.2, SVG Export Plug-In . SVG Version: 6.00 Build 0)  -->
<svg version="1.1" xmlns="http://www.w3.org/2000/svg" xmlns:xlink="http://www.w3.org/1999/xlink" x="0px" y="0px"
	 viewBox="0 0 792 134.58" style="enable-background:new 0 0 792 134.58;" xml:space="preserve">
<style type="text/css">
	.st0{fill:#F8D36B;}
	.st1{fill:#FCCE80;}
	.st2{fill:#78CDD2;}
	.st3{fill:#FAAE77;}
	.st4{fill:#FBD8C5;}
	.st5{fill:#E9E7E2;}
	.st6{fill:#3A3C49;}
	.st7{fill:#FFFFFF;}
	.st8{fill:#B9B5B1;}
	.st9{fill:#D43246;}
	.st10{fill:#BDB5AA;}
	.st11{fill:#F6F5F4;}
	.st12{fill:#79726E;}
	.st13{fill:#FDC17C;}
	.st14{fill:#EE6C30;}
	.st15{fill:none;stroke:#3A3C49;stroke-width:0.2346;stroke-miterlimit:10;}
	.st16{fill:none;stroke:#3A3C49;stroke-width:0.1659;stroke-miterlimit:10;}
	.st17{fill:#C2C268;}
	.st18{fill:#CCDE68;}
	.st19{fill:#EB99C2;}
	.st20{fill:#8B81BD;}
	.st21{fill:#CCDD6F;}
	.st22{fill:none;stroke:#3A3C49;stroke-miterlimit:10;}
	.st23{fill:#D43247;}
	.st24{fill:none;stroke:#D43247;stroke-miterlimit:10;}
	.st25{fill:none;stroke:#FFFFFF;stroke-width:3.0649;stroke-miterlimit:10;}
	.st26{fill:none;stroke:#FFFFFF;stroke-width:1.1274;stroke-miterlimit:10;}
</style>
<g id="circle">
</g>
<g id="Layer_1">
	<g>
		<path class="st6" d="M69.79,98.68c-0.45,1.25-1.02,2.45-1.74,3.6c-3.56,5.7-9.13,8.54-16.69,8.54c-2.49,0-4.76-0.31-6.81-0.94
			c-6.94-2.22-10.41-7.3-10.41-15.22c0.09-11.66,11.57-17.71,34.45-18.16v-8.68c0-2.58-0.18-4.81-0.53-6.67
			c-0.89-5.07-3.43-7.61-7.61-7.61c-1.25,0-2.36,0.22-3.34,0.67c-1.51,0.89-2.76,3.12-3.74,6.68c-0.36,1.25-0.62,2.14-0.8,2.67
			c-1.33,3.74-3.92,5.61-7.74,5.61c-0.89,0-1.74-0.13-2.54-0.4c-3.29-0.89-4.94-3.07-4.94-6.54c0-1.51,0.4-2.94,1.2-4.27
			c3.12-5.25,10.73-7.88,22.83-7.88c3.11,0,6.01,0.31,8.68,0.94c10.32,2.58,15.49,9.44,15.49,20.56v27.91c0,4.27,0.98,6.5,2.94,6.68
			c2.58-0.09,4.14-3.21,4.67-9.35l3.47,0.13c-0.27,2.76-0.67,5.03-1.2,6.81c-1.6,4.72-5.65,7.08-12.15,7.08
			C76.16,110.38,71.66,106.34,69.79,98.68z M60.45,104.69c3.74-1.42,6.45-5.25,8.15-11.48V80.25c-4.01,0.18-7.3,0.67-9.88,1.47
			c-4.81,1.78-7.21,5.61-7.21,11.48c0.09,7.75,2.36,11.71,6.81,11.88C58.93,105.09,59.65,104.96,60.45,104.69z"/>
		<path class="st6" d="M142.15,106.16c1.16,0.18,1.74,1.29,1.74,3.34h-37.25v-3.47c2.49,0,4.49-0.18,6.01-0.53
			c2.94-0.8,4.41-3.03,4.41-6.68V26.18h-10.42v-3.47h27.37v83.31h6.68C141.22,106.02,141.71,106.07,142.15,106.16z"/>
		<path class="st6" d="M193.28,106.16c1.16,0.18,1.74,1.29,1.74,3.34h-39.79v-3.47c6.59,0,9.97-2.31,10.15-6.94V55.69h-10.81v-3.6
			h10.81v-1.73c0-6.76,1.42-12.46,4.27-17.09c4.63-7.48,12.15-11.21,22.56-11.21c4.81,0,8.9,0.85,12.28,2.54
			c4.63,2.32,6.94,5.43,6.94,9.35c0,0.8-0.13,1.56-0.4,2.27c-1.16,2.85-3.56,4.27-7.21,4.27c-2.05-0.09-3.83-0.98-5.34-2.67
			c-0.53-0.71-1.69-3.12-3.47-7.21c-1.42-3.38-3.25-5.07-5.47-5.07c-1.69,0-3.07,0.62-4.14,1.87c-2.05,2.58-3.07,10.59-3.07,24.03
			v0.67h15.09v3.6h-15.09v50.34h9.48C192.35,106.02,192.84,106.07,193.28,106.16z"/>
		<path class="st6" d="M246.22,98.68c-0.45,1.25-1.02,2.45-1.74,3.6c-3.56,5.7-9.13,8.54-16.69,8.54c-2.49,0-4.76-0.31-6.81-0.94
			c-6.94-2.22-10.41-7.3-10.41-15.22c0.09-11.66,11.57-17.71,34.45-18.16v-8.68c0-2.58-0.18-4.81-0.53-6.67
			c-0.89-5.07-3.43-7.61-7.61-7.61c-1.25,0-2.36,0.22-3.34,0.67c-1.51,0.89-2.76,3.12-3.74,6.68c-0.36,1.25-0.62,2.14-0.8,2.67
			c-1.33,3.74-3.92,5.61-7.74,5.61c-0.89,0-1.74-0.13-2.54-0.4c-3.29-0.89-4.94-3.07-4.94-6.54c0-1.51,0.4-2.94,1.2-4.27
			c3.12-5.25,10.73-7.88,22.83-7.88c3.11,0,6.01,0.31,8.68,0.94c10.32,2.58,15.49,9.44,15.49,20.56v27.91c0,4.27,0.98,6.5,2.94,6.68
			c2.58-0.09,4.14-3.21,4.67-9.35l3.47,0.13c-0.27,2.76-0.67,5.03-1.2,6.81c-1.6,4.72-5.65,7.08-12.15,7.08
			C252.58,110.38,248.09,106.34,246.22,98.68z M236.87,104.69c3.74-1.42,6.45-5.25,8.15-11.48V80.25c-4.01,0.18-7.3,0.67-9.88,1.47
			c-4.81,1.78-7.21,5.61-7.21,11.48c0.09,7.75,2.36,11.71,6.81,11.88C235.36,105.09,236.07,104.96,236.87,104.69z"/>
		<path class="st6" d="M323.85,59.29c5.87-6.14,13.53-9.21,22.97-9.21c6.94,0,12.73,1.38,17.36,4.14c4.72,2.94,7.08,6.36,7.08,10.28
			c0,0.71-0.09,1.42-0.27,2.14c-1.07,3.38-3.87,5.07-8.41,5.07c-2.14,0-3.83-0.44-5.07-1.33c-1.6-1.16-2.67-3.78-3.2-7.88
			c-0.27-1.69-0.49-2.89-0.67-3.6c-0.89-3.65-3.29-5.48-7.21-5.48c-1.96,0-3.65,0.4-5.07,1.2c-4.72,2.85-7.08,11.75-7.08,26.7
			c0,7.48,0.75,13.26,2.27,17.36c2.05,5.52,6.14,8.28,12.28,8.28c2.31,0,4.63-0.35,6.94-1.07c5.96-1.87,10.19-5.47,12.68-10.81
			l3.47,0.94c-0.89,2.31-2.18,4.45-3.87,6.41c-4.99,5.61-12.11,8.41-21.36,8.41c-5.96,0-11.26-1.11-15.89-3.34
			c-9.88-4.89-14.82-13.84-14.82-26.84C315.97,71.93,318.6,64.81,323.85,59.29z"/>
		<path class="st6" d="M413.82,106.16c1.16,0.18,1.74,1.29,1.74,3.34h-31.38v-3.47c0.62,0,1.24-0.04,1.87-0.13
			c4.01-0.35,6.01-2.62,6.01-6.81v-72.9h-7.88v-3.47h24.83V62.1c0.62-1.24,1.38-2.49,2.27-3.74c4.27-5.52,10.01-8.28,17.22-8.28
			c2.31,0,4.45,0.36,6.41,1.07c7.92,2.67,11.88,9.57,11.88,20.7v34.18h4.41c0.53,0,1.07,0.05,1.6,0.13
			c1.16,0.18,1.74,1.29,1.74,3.34h-29.91v-3.47c1.51,0,2.72-0.22,3.6-0.67c1.07-0.62,1.6-2.72,1.6-6.28V69.57
			c0-0.89-0.05-1.69-0.13-2.4c-0.62-6.67-3.65-10.01-9.08-10.01c-1.42,0-2.89,0.4-4.41,1.2c-4.81,2.58-7.21,7.79-7.21,15.62v32.04
			h3.34C412.89,106.02,413.38,106.07,413.82,106.16z"/>
		<path class="st6" d="M503.97,98.68c-0.45,1.25-1.02,2.45-1.73,3.6c-3.56,5.7-9.13,8.54-16.69,8.54c-2.49,0-4.76-0.31-6.81-0.94
			c-6.94-2.22-10.41-7.3-10.41-15.22c0.09-11.66,11.57-17.71,34.45-18.16v-8.68c0-2.58-0.18-4.81-0.53-6.67
			c-0.89-5.07-3.43-7.61-7.61-7.61c-1.25,0-2.36,0.22-3.34,0.67c-1.51,0.89-2.76,3.12-3.74,6.68c-0.36,1.25-0.62,2.14-0.8,2.67
			c-1.33,3.74-3.92,5.61-7.74,5.61c-0.89,0-1.74-0.13-2.54-0.4c-3.29-0.89-4.94-3.07-4.94-6.54c0-1.51,0.4-2.94,1.2-4.27
			c3.12-5.25,10.73-7.88,22.83-7.88c3.12,0,6.01,0.31,8.68,0.94c10.33,2.58,15.49,9.44,15.49,20.56v27.91c0,4.27,0.98,6.5,2.94,6.68
			c2.58-0.09,4.14-3.21,4.67-9.35l3.47,0.13c-0.27,2.76-0.67,5.03-1.2,6.81c-1.6,4.72-5.65,7.08-12.15,7.08
			C510.34,110.38,505.84,106.34,503.97,98.68z M494.63,104.69c3.74-1.42,6.45-5.25,8.15-11.48V80.25c-4,0.18-7.3,0.67-9.88,1.47
			c-4.81,1.78-7.21,5.61-7.21,11.48c0.09,7.75,2.36,11.71,6.81,11.88C493.11,105.09,493.83,104.96,494.63,104.69z"/>
		<path class="st6" d="M577.09,106.16c1.16,0.18,1.73,1.29,1.73,3.34h-37.78v-3.47c1.16,0,2.18-0.09,3.07-0.27
			c3.12-0.53,4.67-2.76,4.67-6.68V55.55h-7.74v-3.47h23.36l0.94,12.42c0.98-2.49,2.4-4.81,4.27-6.94c4.18-4.36,9.03-6.54,14.55-6.54
			c1.16,0,2.27,0.13,3.34,0.4c4.36,1.16,6.54,3.96,6.54,8.41c0,1.25-0.27,2.45-0.8,3.61c-1.51,3.38-4.05,5.07-7.61,5.07
			c-1.07,0-2.05-0.13-2.94-0.4c-1.87-0.71-3.6-2.49-5.21-5.34c-1.16-2.05-2.23-3.07-3.2-3.07c-0.54,0-1.11,0.13-1.74,0.4
			c-3.92,2.05-6.19,7.74-6.81,17.09v28.84h9.88C576.16,106.02,576.65,106.07,577.09,106.16z"/>
		<path class="st6" d="M639.01,106.16c1.16,0.18,1.74,1.29,1.74,3.34H603.5v-3.47c2.49,0,4.49-0.18,6.01-0.53
			c2.94-0.8,4.41-3.03,4.41-6.68V26.18H603.5v-3.47h27.37v83.31h6.68C638.08,106.02,638.57,106.07,639.01,106.16z"/>
		<path class="st6" d="M684.89,106.16c1.16,0.18,1.74,1.29,1.74,3.34h-32.85v-3.47c1.16,0,2.18-0.09,3.07-0.27
			c3.12-0.53,4.67-2.76,4.67-6.68V55.55h-7.74v-3.47h24.7v53.94h4.94C683.96,106.02,684.45,106.07,684.89,106.16z M678.35,39.4
			c-1.87,3.29-4.76,4.94-8.68,4.94c-1.6,0-3.16-0.4-4.67-1.2c-3.47-1.78-5.21-4.63-5.21-8.54c0-1.69,0.4-3.29,1.2-4.81
			c1.96-3.47,4.85-5.21,8.68-5.21c1.69,0,3.29,0.45,4.81,1.33c3.47,1.87,5.21,4.76,5.21,8.68C679.68,36.28,679.24,37.89,678.35,39.4
			z"/>
		<path class="st6" d="M754.06,99.88c-4.54,7.3-12.02,10.95-22.43,10.95c-5.87,0-11.13-1.2-15.75-3.6
			c-9.7-5.07-14.55-14.06-14.55-26.97c0-7.92,2.14-14.55,6.41-19.89c5.61-6.85,13.44-10.28,23.5-10.28c5.52,0,10.46,0.94,14.82,2.8
			c7.74,3.47,11.62,8.99,11.62,16.56c0,1.51-0.27,2.89-0.8,4.14c-2.32,4.99-10.64,7.26-24.97,6.81l-12.28-0.4
			c0.09,5.16,0.53,9.61,1.33,13.35c2.05,9.08,6.63,13.62,13.75,13.62c2.22,0,4.41-0.4,6.54-1.2c5.34-1.96,9.26-5.65,11.75-11.08
			l3.21,1.07C755.66,97.17,754.95,98.55,754.06,99.88z M719.61,76.12l8.54,0.4c3.56,0.18,6.23-0.04,8.01-0.67
			c2.49-0.98,3.74-3.56,3.74-7.74c-0.09-9.52-2.98-14.37-8.68-14.55C724.11,53.82,720.24,61.34,719.61,76.12z"/>
	</g>
</g>
</svg>
