<svg xmlns="http://www.w3.org/2000/svg" xmlns:xlink="http://www.w3.org/1999/xlink" width="500" zoomAndPan="magnify" viewBox="0 0 375 374.999991" height="500" preserveAspectRatio="xMidYMid meet" version="1.0"><defs><g/><clipPath id="b3492877ec"><path d="M 116 161 L 145 161 L 145 189 L 116 189 Z M 116 161 " clip-rule="nonzero"/></clipPath><clipPath id="e3eca9a210"><path d="M 130.667969 161.007812 L 144.4375 174.777344 L 130.460938 188.753906 L 116.691406 174.984375 Z M 130.667969 161.007812 " clip-rule="nonzero"/></clipPath><clipPath id="5c2cf7c66d"><path d="M 130.667969 160.59375 L 144.777344 174.703125 L 130.324219 189.15625 L 116.214844 175.046875 Z M 130.667969 160.59375 " clip-rule="nonzero"/></clipPath><clipPath id="0863287c6e"><path d="M 116 160 L 145 160 L 145 190 L 116 190 Z M 116 160 " clip-rule="nonzero"/></clipPath><clipPath id="3334378287"><path d="M 130.667969 160.59375 L 144.777344 174.703125 L 130.324219 189.15625 L 116.214844 175.046875 Z M 130.667969 160.59375 " clip-rule="nonzero"/></clipPath><clipPath id="3ad37ad9a8"><path d="M 130.667969 160.59375 L 144.847656 174.773438 L 130.457031 189.164062 L 116.277344 174.984375 Z M 130.667969 160.59375 " clip-rule="nonzero"/></clipPath><clipPath id="998fc22fa8"><path d="M 102 161 L 131 161 L 131 189 L 102 189 Z M 102 161 " clip-rule="nonzero"/></clipPath><clipPath id="494d2e6f83"><path d="M 116.382812 161.007812 L 130.152344 174.777344 L 116.171875 188.753906 L 102.40625 174.984375 Z M 116.382812 161.007812 " clip-rule="nonzero"/></clipPath><clipPath id="7fa24da6d5"><path d="M 116.382812 160.59375 L 130.492188 174.703125 L 116.039062 189.15625 L 101.929688 175.046875 Z M 116.382812 160.59375 " clip-rule="nonzero"/></clipPath><clipPath id="abe8b10434"><path d="M 101 160 L 131 160 L 131 190 L 101 190 Z M 101 160 " clip-rule="nonzero"/></clipPath><clipPath id="5d339a2894"><path d="M 116.382812 160.59375 L 130.492188 174.703125 L 116.039062 189.15625 L 101.929688 175.046875 Z M 116.382812 160.59375 " clip-rule="nonzero"/></clipPath><clipPath id="c1385ecac2"><path d="M 116.382812 160.59375 L 130.5625 174.773438 L 116.171875 189.164062 L 101.992188 174.984375 Z M 116.382812 160.59375 " clip-rule="nonzero"/></clipPath></defs><g fill="#000000" fill-opacity="1"><g transform="translate(150.107686, 189.939435)"><g><path d="M 8.90625 0.3125 C 6.519531 0.3125 4.703125 -0.421875 3.453125 -1.890625 C 2.203125 -3.367188 1.507812 -5.390625 1.375 -7.953125 L 4.875 -8.90625 C 4.988281 -7.082031 5.34375 -5.609375 5.9375 -4.484375 C 6.539062 -3.367188 7.53125 -2.8125 8.90625 -2.8125 C 9.9375 -2.8125 10.710938 -3.09375 11.234375 -3.65625 C 11.765625 -4.226562 12.03125 -5.054688 12.03125 -6.140625 C 12.03125 -7.304688 11.78125 -8.273438 11.28125 -9.046875 C 10.789062 -9.816406 10.007812 -10.671875 8.9375 -11.609375 L 4.171875 -15.8125 C 3.210938 -16.65625 2.515625 -17.5625 2.078125 -18.53125 C 1.648438 -19.5 1.4375 -20.6875 1.4375 -22.09375 C 1.4375 -24.164062 2.03125 -25.773438 3.21875 -26.921875 C 4.414062 -28.066406 6.039062 -28.640625 8.09375 -28.640625 C 10.34375 -28.640625 12.039062 -28.039062 13.1875 -26.84375 C 14.332031 -25.65625 15.019531 -23.8125 15.25 -21.3125 L 11.890625 -20.40625 C 11.765625 -22.0625 11.441406 -23.335938 10.921875 -24.234375 C 10.398438 -25.140625 9.457031 -25.59375 8.09375 -25.59375 C 7.09375 -25.59375 6.320312 -25.328125 5.78125 -24.796875 C 5.25 -24.273438 4.984375 -23.5 4.984375 -22.46875 C 4.984375 -21.632812 5.125 -20.929688 5.40625 -20.359375 C 5.6875 -19.785156 6.164062 -19.207031 6.84375 -18.625 L 11.640625 -14.40625 C 12.878906 -13.3125 13.863281 -12.117188 14.59375 -10.828125 C 15.332031 -9.546875 15.703125 -8.085938 15.703125 -6.453125 C 15.703125 -4.367188 15.070312 -2.71875 13.8125 -1.5 C 12.550781 -0.289062 10.914062 0.3125 8.90625 0.3125 Z M 8.90625 0.3125 "/></g></g></g><g fill="#000000" fill-opacity="1"><g transform="translate(166.687368, 189.939435)"><g><path d="M 2.203125 -28.40625 L 9.25 -28.40625 C 11.707031 -28.40625 13.488281 -27.738281 14.59375 -26.40625 C 15.707031 -25.070312 16.265625 -23.117188 16.265625 -20.546875 C 16.265625 -18.234375 15.664062 -16.429688 14.46875 -15.140625 C 13.28125 -13.859375 11.554688 -13.21875 9.296875 -13.21875 L 6.171875 -13.21875 L 6.171875 0 L 2.203125 0 Z M 8 -16.0625 C 9.164062 -16.0625 10.066406 -16.1875 10.703125 -16.4375 C 11.347656 -16.695312 11.8125 -17.140625 12.09375 -17.765625 C 12.375 -18.398438 12.515625 -19.316406 12.515625 -20.515625 C 12.515625 -21.960938 12.410156 -23.023438 12.203125 -23.703125 C 11.992188 -24.378906 11.578125 -24.859375 10.953125 -25.140625 C 10.335938 -25.421875 9.363281 -25.5625 8.03125 -25.5625 L 6.171875 -25.5625 L 6.171875 -16.0625 Z M 8 -16.0625 "/></g></g></g><g fill="#000000" fill-opacity="1"><g transform="translate(183.512417, 189.939435)"><g><path d="M 2.203125 -28.40625 L 13.21875 -28.40625 L 13.21875 -25.453125 L 6.171875 -25.453125 L 6.171875 -16.0625 L 11.890625 -16.0625 L 11.890625 -13.25 L 6.171875 -13.25 L 6.171875 -2.84375 L 13.28125 -2.84375 L 13.28125 0 L 2.203125 0 Z M 2.203125 -28.40625 "/></g></g></g><g fill="#000000" fill-opacity="1"><g transform="translate(197.778656, 189.939435)"><g><path d="M 9.328125 0.3125 C 6.523438 0.3125 4.550781 -0.519531 3.40625 -2.1875 C 2.257812 -3.863281 1.6875 -6.171875 1.6875 -9.109375 L 1.6875 -19.140625 C 1.6875 -22.253906 2.242188 -24.613281 3.359375 -26.21875 C 4.484375 -27.832031 6.472656 -28.640625 9.328125 -28.640625 C 11.878906 -28.640625 13.707031 -27.953125 14.8125 -26.578125 C 15.925781 -25.203125 16.484375 -23.164062 16.484375 -20.46875 L 16.484375 -18.234375 L 12.734375 -18.234375 L 12.734375 -20.234375 C 12.734375 -21.535156 12.671875 -22.535156 12.546875 -23.234375 C 12.429688 -23.941406 12.132812 -24.503906 11.65625 -24.921875 C 11.175781 -25.347656 10.410156 -25.5625 9.359375 -25.5625 C 8.285156 -25.5625 7.484375 -25.332031 6.953125 -24.875 C 6.429688 -24.414062 6.085938 -23.785156 5.921875 -22.984375 C 5.765625 -22.179688 5.6875 -21.097656 5.6875 -19.734375 L 5.6875 -8.484375 C 5.6875 -7.035156 5.800781 -5.898438 6.03125 -5.078125 C 6.257812 -4.265625 6.632812 -3.679688 7.15625 -3.328125 C 7.6875 -2.984375 8.421875 -2.8125 9.359375 -2.8125 C 10.367188 -2.8125 11.117188 -3.03125 11.609375 -3.46875 C 12.097656 -3.914062 12.40625 -4.523438 12.53125 -5.296875 C 12.664062 -6.066406 12.734375 -7.117188 12.734375 -8.453125 L 12.734375 -10.546875 L 16.484375 -10.546875 L 16.484375 -8.453125 C 16.484375 -5.617188 15.945312 -3.445312 14.875 -1.9375 C 13.8125 -0.4375 11.960938 0.3125 9.328125 0.3125 Z M 9.328125 0.3125 "/></g></g></g><g fill="#000000" fill-opacity="1"><g transform="translate(215.830525, 189.939435)"><g><path d="M 2.421875 -28.40625 L 6.3125 -28.40625 L 6.3125 0 L 2.421875 0 Z M 2.421875 -28.40625 "/></g></g></g><g fill="#000000" fill-opacity="1"><g transform="translate(224.523462, 189.939435)"><g><path d="M 2.203125 -28.40625 L 13.21875 -28.40625 L 13.21875 -25.453125 L 6.171875 -25.453125 L 6.171875 -16.0625 L 11.890625 -16.0625 L 11.890625 -13.25 L 6.171875 -13.25 L 6.171875 -2.84375 L 13.28125 -2.84375 L 13.28125 0 L 2.203125 0 Z M 2.203125 -28.40625 "/></g></g></g><g fill="#000000" fill-opacity="1"><g transform="translate(238.7897, 189.939435)"><g><path d="M 8.90625 0.3125 C 6.519531 0.3125 4.703125 -0.421875 3.453125 -1.890625 C 2.203125 -3.367188 1.507812 -5.390625 1.375 -7.953125 L 4.875 -8.90625 C 4.988281 -7.082031 5.34375 -5.609375 5.9375 -4.484375 C 6.539062 -3.367188 7.53125 -2.8125 8.90625 -2.8125 C 9.9375 -2.8125 10.710938 -3.09375 11.234375 -3.65625 C 11.765625 -4.226562 12.03125 -5.054688 12.03125 -6.140625 C 12.03125 -7.304688 11.78125 -8.273438 11.28125 -9.046875 C 10.789062 -9.816406 10.007812 -10.671875 8.9375 -11.609375 L 4.171875 -15.8125 C 3.210938 -16.65625 2.515625 -17.5625 2.078125 -18.53125 C 1.648438 -19.5 1.4375 -20.6875 1.4375 -22.09375 C 1.4375 -24.164062 2.03125 -25.773438 3.21875 -26.921875 C 4.414062 -28.066406 6.039062 -28.640625 8.09375 -28.640625 C 10.34375 -28.640625 12.039062 -28.039062 13.1875 -26.84375 C 14.332031 -25.65625 15.019531 -23.8125 15.25 -21.3125 L 11.890625 -20.40625 C 11.765625 -22.0625 11.441406 -23.335938 10.921875 -24.234375 C 10.398438 -25.140625 9.457031 -25.59375 8.09375 -25.59375 C 7.09375 -25.59375 6.320312 -25.328125 5.78125 -24.796875 C 5.25 -24.273438 4.984375 -23.5 4.984375 -22.46875 C 4.984375 -21.632812 5.125 -20.929688 5.40625 -20.359375 C 5.6875 -19.785156 6.164062 -19.207031 6.84375 -18.625 L 11.640625 -14.40625 C 12.878906 -13.3125 13.863281 -12.117188 14.59375 -10.828125 C 15.332031 -9.546875 15.703125 -8.085938 15.703125 -6.453125 C 15.703125 -4.367188 15.070312 -2.71875 13.8125 -1.5 C 12.550781 -0.289062 10.914062 0.3125 8.90625 0.3125 Z M 8.90625 0.3125 "/></g></g></g><g clip-path="url(#b3492877ec)"><g clip-path="url(#e3eca9a210)"><g clip-path="url(#5c2cf7c66d)"><path fill="#ffffff" d="M 130.671875 160.582031 L 144.808594 174.71875 L 130.417969 189.109375 L 116.28125 174.972656 Z M 130.671875 160.582031 " fill-opacity="1" fill-rule="nonzero"/></g></g></g><g clip-path="url(#0863287c6e)"><g clip-path="url(#3334378287)"><g clip-path="url(#3ad37ad9a8)"><path stroke-linecap="butt" transform="matrix(0.172043, 0.172043, -0.172043, 0.172043, 130.668306, 160.595233)" fill="none" stroke-linejoin="miter" d="M -0.00529002 -0.00333255 L -0.00529002 83.642022 L 82.413999 83.642022 L 82.413999 -0.00333255 L -0.00529002 -0.00333255 " stroke="#000000" stroke-width="6.165076" stroke-opacity="1" stroke-miterlimit="4"/></g></g></g><g clip-path="url(#998fc22fa8)"><g clip-path="url(#494d2e6f83)"><g clip-path="url(#7fa24da6d5)"><path fill="#bdd0cc" d="M 116.386719 160.582031 L 130.523438 174.71875 L 116.132812 189.109375 L 101.996094 174.972656 Z M 116.386719 160.582031 " fill-opacity="1" fill-rule="nonzero"/></g></g></g><g clip-path="url(#abe8b10434)"><g clip-path="url(#5d339a2894)"><g clip-path="url(#c1385ecac2)"><path stroke-linecap="butt" transform="matrix(0.172043, 0.172043, -0.172043, 0.172043, 116.382916, 160.595233)" fill="none" stroke-linejoin="miter" d="M -0.00461224 -0.00401032 L -0.00461224 83.641344 L 82.414677 83.641344 L 82.414677 -0.00401032 L -0.00461224 -0.00401032 " stroke="#000000" stroke-width="6.165076" stroke-opacity="1" stroke-miterlimit="4"/></g></g></g></svg>