<svg xmlns="http://www.w3.org/2000/svg" xmlns:xlink="http://www.w3.org/1999/xlink" width="8000" zoomAndPan="magnify" viewBox="0 0 6000 2343.749891" height="3125" preserveAspectRatio="xMidYMid meet" version="1.0"><defs><g/></defs><g fill="#000000" fill-opacity="1"><g transform="translate(170.992695, 1434.519447)"><g><path d="M 130.421875 -624.046875 C 154.578125 -624.046875 173.296875 -618.457031 186.578125 -607.28125 C 199.859375 -596.113281 206.5 -582.078125 206.5 -565.171875 C 206.5 -550.078125 205.140625 -533.019531 202.421875 -514 C 199.710938 -494.976562 197 -476.5625 194.28125 -458.75 C 191.5625 -440.9375 190.203125 -425.6875 190.203125 -413 C 190.203125 -410.59375 190.351562 -402.140625 190.65625 -387.640625 C 190.957031 -373.148438 192.015625 -355.335938 193.828125 -334.203125 C 195.640625 -313.078125 198.804688 -290.738281 203.328125 -267.1875 C 207.859375 -243.632812 214.347656 -221.742188 222.796875 -201.515625 C 231.253906 -181.296875 242.578125 -164.691406 256.765625 -151.703125 C 270.960938 -138.722656 288.320312 -132.234375 308.84375 -132.234375 C 333 -132.234375 352.171875 -138.570312 366.359375 -151.25 C 380.546875 -163.9375 390.8125 -179.785156 397.15625 -198.796875 C 403.5 -217.816406 406.671875 -236.6875 406.671875 -255.40625 C 406.671875 -285 403.195312 -313.984375 396.25 -342.359375 C 389.3125 -370.742188 382.820312 -399.125 376.78125 -427.5 C 372.550781 -449.84375 369.226562 -470.972656 366.8125 -490.890625 C 364.394531 -510.816406 362.28125 -531.953125 360.46875 -554.296875 C 365.300781 -574.222656 373.753906 -589.316406 385.828125 -599.578125 C 397.910156 -609.847656 410.59375 -614.984375 423.875 -614.984375 C 436.550781 -614.984375 448.773438 -610.453125 460.546875 -601.390625 C 472.328125 -592.335938 480.9375 -578.148438 486.375 -558.828125 C 489.394531 -526.222656 494.523438 -493.765625 501.765625 -461.453125 C 509.015625 -429.148438 515.957031 -396.847656 522.59375 -364.546875 C 529.238281 -332.242188 532.5625 -299.1875 532.5625 -265.375 C 532.5625 -215.863281 523.503906 -171.632812 505.390625 -132.6875 C 487.273438 -93.738281 462.21875 -63.09375 430.21875 -40.75 C 398.21875 -18.414062 361.6875 -7.25 320.625 -7.25 C 276.539062 -7.25 238.347656 -17.207031 206.046875 -37.125 C 173.742188 -57.050781 147.023438 -83.46875 125.890625 -116.375 C 104.753906 -149.289062 89.054688 -185.671875 78.796875 -225.515625 C 68.535156 -265.367188 63.40625 -304.921875 63.40625 -344.171875 C 63.40625 -376.171875 63.859375 -404.546875 64.765625 -429.296875 C 65.671875 -454.054688 66.421875 -480.628906 67.015625 -509.015625 C 67.617188 -527.128906 68.828125 -543.734375 70.640625 -558.828125 C 72.453125 -573.921875 77.582031 -587.050781 86.03125 -598.21875 C 94.488281 -609.394531 109.285156 -618.003906 130.421875 -624.046875 Z M 130.421875 -624.046875 "/></g></g></g><g fill="#000000" fill-opacity="1"><g transform="translate(748.746852, 1434.519447)"><g><path d="M 268.09375 -186.578125 C 248.769531 -178.117188 233.367188 -164.679688 221.890625 -146.265625 C 210.421875 -127.859375 201.0625 -107.484375 193.8125 -85.140625 C 186.570312 -62.796875 179.328125 -41.359375 172.078125 -20.828125 C 164.835938 -0.296875 155.628906 16.609375 144.453125 29.890625 C 133.285156 43.171875 118.34375 49.8125 99.625 49.8125 C 81.507812 49.8125 67.164062 45.128906 56.59375 35.765625 C 46.03125 26.410156 38.484375 14.488281 33.953125 0 C 29.429688 -14.488281 27.171875 -30.1875 27.171875 -47.09375 C 27.171875 -67.625 31.242188 -87.550781 39.390625 -106.875 C 47.546875 -126.195312 59.171875 -142.953125 74.265625 -157.140625 C 89.359375 -171.328125 106.566406 -180.835938 125.890625 -185.671875 C 143.398438 -189.898438 158.492188 -197.597656 171.171875 -208.765625 C 183.859375 -219.941406 195.9375 -231.867188 207.40625 -244.546875 C 218.882812 -257.222656 230.960938 -268.238281 243.640625 -277.59375 C 256.316406 -286.957031 271.410156 -291.640625 288.921875 -291.640625 C 306.429688 -291.640625 321.976562 -286.804688 335.5625 -277.140625 C 349.15625 -267.484375 360.628906 -255.410156 369.984375 -240.921875 C 379.347656 -226.429688 386.441406 -211.335938 391.265625 -195.640625 C 396.097656 -179.941406 398.515625 -165.75 398.515625 -153.0625 C 398.515625 -132.53125 401.984375 -113.507812 408.921875 -96 C 415.867188 -78.488281 432.023438 -65.8125 457.390625 -57.96875 C 465.835938 -55.550781 473.6875 -51.320312 480.9375 -45.28125 C 488.1875 -39.25 491.8125 -31.398438 491.8125 -21.734375 C 491.8125 -7.242188 485.769531 4.828125 473.6875 14.484375 C 461.613281 24.148438 448.632812 28.984375 434.75 28.984375 C 406.96875 28.984375 383.867188 21.890625 365.453125 7.703125 C 347.035156 -6.484375 331.941406 -24.75 320.171875 -47.09375 C 308.398438 -69.4375 298.585938 -92.984375 290.734375 -117.734375 C 282.890625 -142.492188 275.34375 -165.441406 268.09375 -186.578125 Z M 268.09375 -186.578125 "/></g></g></g><g fill="#000000" fill-opacity="1"><g transform="translate(1240.471882, 1434.519447)"><g><path d="M 45.28125 -207.40625 C 47.695312 -220.6875 49.8125 -235.023438 51.625 -250.421875 C 53.4375 -265.828125 56.453125 -280.472656 60.671875 -294.359375 C 64.898438 -308.242188 71.09375 -319.5625 79.25 -328.3125 C 87.40625 -337.070312 99.03125 -341.453125 114.125 -341.453125 C 131.632812 -341.453125 147.9375 -333.90625 163.03125 -318.8125 C 178.125 -303.71875 185.671875 -285 185.671875 -262.65625 C 183.253906 -249.976562 179.78125 -236.84375 175.25 -223.25 C 170.726562 -209.664062 168.46875 -195.929688 168.46875 -182.046875 C 168.46875 -177.816406 169.972656 -173.4375 172.984375 -168.90625 C 176.003906 -164.382812 180.535156 -162.125 186.578125 -162.125 C 195.035156 -162.125 202.734375 -167.40625 209.671875 -177.96875 C 216.617188 -188.539062 223.109375 -201.523438 229.140625 -216.921875 C 235.179688 -232.316406 241.519531 -247.5625 248.15625 -262.65625 C 254.800781 -277.75 262.648438 -290.578125 271.703125 -301.140625 C 280.765625 -311.710938 291.335938 -317 303.421875 -317 C 311.867188 -317 321.375 -314.128906 331.9375 -308.390625 C 342.507812 -302.660156 351.566406 -294.660156 359.109375 -284.390625 C 366.660156 -274.128906 370.4375 -262.054688 370.4375 -248.171875 C 370.4375 -243.335938 369.53125 -239.109375 367.71875 -235.484375 C 358.664062 -211.929688 348.097656 -187.171875 336.015625 -161.203125 C 323.941406 -135.242188 309.90625 -110.789062 293.90625 -87.84375 C 277.90625 -64.90625 259.789062 -46.191406 239.5625 -31.703125 C 219.332031 -17.210938 196.539062 -9.96875 171.1875 -9.96875 C 141.59375 -9.96875 117.4375 -17.664062 98.71875 -33.0625 C 80 -48.457031 66.410156 -67.320312 57.953125 -89.65625 C 49.503906 -112 45.28125 -133.4375 45.28125 -153.96875 C 45.28125 -162.425781 45.734375 -171.179688 46.640625 -180.234375 C 47.546875 -189.296875 48.300781 -198.351562 48.90625 -207.40625 C 48.90625 -207.40625 48.601562 -207.40625 48 -207.40625 C 47.394531 -207.40625 46.488281 -207.40625 45.28125 -207.40625 Z M 45.28125 -207.40625 "/></g></g></g><g fill="#000000" fill-opacity="1"><g transform="translate(1610.850431, 1434.519447)"><g><path d="M 102.34375 81.515625 C 83.625 79.703125 68.828125 74.113281 57.953125 64.75 C 47.085938 55.394531 41.65625 43.773438 41.65625 29.890625 C 41.65625 23.242188 43.617188 15.691406 47.546875 7.234375 C 51.472656 -1.210938 55.25 -9.507812 58.875 -17.65625 C 62.5 -25.8125 64.3125 -32.910156 64.3125 -38.953125 C 64.3125 -47.398438 61.289062 -57.359375 55.25 -68.828125 C 42.570312 -93.585938 36.234375 -120.757812 36.234375 -150.34375 C 36.234375 -187.78125 46.191406 -222.800781 66.109375 -255.40625 C 86.035156 -288.019531 112.90625 -312.175781 146.71875 -327.875 C 152.757812 -330.894531 158.796875 -333.15625 164.828125 -334.65625 C 170.867188 -336.164062 176.910156 -336.921875 182.953125 -336.921875 C 199.859375 -336.921875 213.59375 -331.488281 224.15625 -320.625 C 234.726562 -309.757812 240.015625 -297.378906 240.015625 -283.484375 C 240.015625 -274.429688 237.445312 -266.429688 232.3125 -259.484375 C 227.1875 -252.546875 219.789062 -245.148438 210.125 -237.296875 C 191.40625 -222.203125 177.363281 -209.367188 168 -198.796875 C 158.644531 -188.234375 153.96875 -177.820312 153.96875 -167.5625 C 153.96875 -157.894531 157.585938 -147.023438 164.828125 -134.953125 C 172.078125 -122.878906 182.648438 -106.878906 196.546875 -86.953125 C 204.992188 -77.285156 211.484375 -67.164062 216.015625 -56.59375 C 220.546875 -46.03125 222.8125 -35.316406 222.8125 -24.453125 C 222.8125 -0.898438 215.710938 18.722656 201.515625 34.421875 C 187.328125 50.117188 170.875 61.890625 152.15625 69.734375 C 133.4375 77.585938 116.832031 81.515625 102.34375 81.515625 Z M 102.34375 81.515625 "/></g></g></g><g fill="#000000" fill-opacity="1"><g transform="translate(1887.049571, 1434.519447)"><g><path d="M 45.28125 -207.40625 C 47.695312 -220.6875 49.8125 -235.023438 51.625 -250.421875 C 53.4375 -265.828125 56.453125 -280.472656 60.671875 -294.359375 C 64.898438 -308.242188 71.09375 -319.5625 79.25 -328.3125 C 87.40625 -337.070312 99.03125 -341.453125 114.125 -341.453125 C 131.632812 -341.453125 147.9375 -333.90625 163.03125 -318.8125 C 178.125 -303.71875 185.671875 -285 185.671875 -262.65625 C 183.253906 -249.976562 179.78125 -236.84375 175.25 -223.25 C 170.726562 -209.664062 168.46875 -195.929688 168.46875 -182.046875 C 168.46875 -177.816406 169.972656 -173.4375 172.984375 -168.90625 C 176.003906 -164.382812 180.535156 -162.125 186.578125 -162.125 C 195.035156 -162.125 202.734375 -167.40625 209.671875 -177.96875 C 216.617188 -188.539062 223.109375 -201.523438 229.140625 -216.921875 C 235.179688 -232.316406 241.519531 -247.5625 248.15625 -262.65625 C 254.800781 -277.75 262.648438 -290.578125 271.703125 -301.140625 C 280.765625 -311.710938 291.335938 -317 303.421875 -317 C 311.867188 -317 321.375 -314.128906 331.9375 -308.390625 C 342.507812 -302.660156 351.566406 -294.660156 359.109375 -284.390625 C 366.660156 -274.128906 370.4375 -262.054688 370.4375 -248.171875 C 370.4375 -243.335938 369.53125 -239.109375 367.71875 -235.484375 C 358.664062 -211.929688 348.097656 -187.171875 336.015625 -161.203125 C 323.941406 -135.242188 309.90625 -110.789062 293.90625 -87.84375 C 277.90625 -64.90625 259.789062 -46.191406 239.5625 -31.703125 C 219.332031 -17.210938 196.539062 -9.96875 171.1875 -9.96875 C 141.59375 -9.96875 117.4375 -17.664062 98.71875 -33.0625 C 80 -48.457031 66.410156 -67.320312 57.953125 -89.65625 C 49.503906 -112 45.28125 -133.4375 45.28125 -153.96875 C 45.28125 -162.425781 45.734375 -171.179688 46.640625 -180.234375 C 47.546875 -189.296875 48.300781 -198.351562 48.90625 -207.40625 C 48.90625 -207.40625 48.601562 -207.40625 48 -207.40625 C 47.394531 -207.40625 46.488281 -207.40625 45.28125 -207.40625 Z M 45.28125 -207.40625 "/></g></g></g><g fill="#000000" fill-opacity="1"><g transform="translate(2257.42812, 1434.519447)"><g><path d="M 114.125 33.515625 C 86.945312 31.703125 65.660156 23.546875 50.265625 9.046875 C 34.867188 -5.441406 27.171875 -23.25 27.171875 -44.375 C 27.171875 -57.0625 29.890625 -70.046875 35.328125 -83.328125 C 51.023438 -120.160156 72.15625 -152.007812 98.71875 -178.875 C 125.289062 -205.75 159.101562 -223.710938 200.15625 -232.765625 C 212.238281 -235.785156 223.863281 -238.957031 235.03125 -242.28125 C 246.207031 -245.601562 256.925781 -252.09375 267.1875 -261.75 C 285.90625 -279.257812 304.625 -288.015625 323.34375 -288.015625 C 337.226562 -288.015625 350.054688 -282.726562 361.828125 -272.15625 C 373.609375 -261.59375 381.613281 -245.75 385.84375 -224.625 C 388.851562 -209.519531 392.925781 -195.476562 398.0625 -182.5 C 403.195312 -169.519531 412.707031 -158.5 426.59375 -149.4375 C 433.84375 -144.613281 440.179688 -139.03125 445.609375 -132.6875 C 451.046875 -126.34375 453.765625 -118.945312 453.765625 -110.5 C 453.765625 -95.40625 449.082031 -83.628906 439.71875 -75.171875 C 430.363281 -66.722656 419.191406 -60.835938 406.203125 -57.515625 C 393.222656 -54.191406 381.300781 -52.53125 370.4375 -52.53125 C 358.96875 -52.53125 347.796875 -53.890625 336.921875 -56.609375 C 326.054688 -59.328125 315.492188 -64.609375 305.234375 -72.453125 C 294.359375 -80.910156 284.09375 -85.140625 274.4375 -85.140625 C 259.945312 -85.140625 247.265625 -75.476562 236.390625 -56.15625 C 228.546875 -42.269531 217.976562 -28.226562 204.6875 -14.03125 C 191.40625 0.15625 177.820312 11.925781 163.9375 21.28125 C 150.050781 30.644531 137.367188 35.328125 125.890625 35.328125 C 122.867188 35.328125 118.945312 34.722656 114.125 33.515625 Z M 114.125 33.515625 "/></g></g></g><g fill="#000000" fill-opacity="1"><g transform="translate(2738.286325, 1434.519447)"><g><path d="M 187.484375 -324.25 C 187.484375 -289.226562 185.972656 -254.207031 182.953125 -219.1875 C 179.929688 -184.164062 178.421875 -148.84375 178.421875 -113.21875 C 178.421875 -96.3125 179.929688 -79.554688 182.953125 -62.953125 C 185.972656 -46.347656 187.484375 -29.890625 187.484375 -13.578125 C 187.484375 -2.710938 184.160156 8.300781 177.515625 19.46875 C 170.878906 30.644531 162.726562 40.15625 153.0625 48 C 143.40625 55.851562 133.742188 59.78125 124.078125 59.78125 C 115.023438 59.78125 105.363281 55.851562 95.09375 48 C 84.832031 40.15625 75.773438 30.34375 67.921875 18.5625 C 60.078125 6.789062 55.25 -5.429688 53.4375 -18.109375 C 48 -67.023438 45.28125 -115.9375 45.28125 -164.84375 C 45.28125 -226.425781 47.09375 -289.820312 50.71875 -355.03125 C 54.34375 -420.25 58.269531 -483.957031 62.5 -546.15625 C 64.3125 -577.550781 69.59375 -599.585938 78.34375 -612.265625 C 87.101562 -624.941406 101.742188 -631.28125 122.265625 -631.28125 C 144.609375 -631.28125 162.722656 -623.429688 176.609375 -607.734375 C 190.503906 -592.035156 197.453125 -571.507812 197.453125 -546.15625 C 197.453125 -512.9375 195.640625 -480.328125 192.015625 -448.328125 C 188.390625 -416.328125 186.578125 -384.328125 186.578125 -352.328125 C 186.578125 -348.097656 186.578125 -343.566406 186.578125 -338.734375 C 186.578125 -333.910156 186.878906 -329.082031 187.484375 -324.25 Z M 187.484375 -324.25 "/></g></g></g><g fill="#000000" fill-opacity="1"><g transform="translate(3155.318434, 1429.828255)"><g><path d="M 330.90625 -124.53125 C 329.132812 -93.695312 320.238281 -64.046875 304.21875 -35.578125 C 288.207031 -7.117188 267.597656 16.003906 242.390625 33.796875 C 217.191406 51.585938 189.769531 60.484375 160.125 60.484375 C 139.957031 60.484375 122.753906 55.144531 108.515625 44.46875 C 94.285156 33.800781 87.171875 18.976562 87.171875 0 C 87.171875 -13.632812 91.914062 -29.195312 101.40625 -46.6875 C 110.894531 -64.1875 122.753906 -76.5 136.984375 -83.625 C 157.742188 -93.695312 173.164062 -104.070312 183.25 -114.75 C 193.332031 -125.425781 198.375 -139.066406 198.375 -155.671875 C 198.375 -171.085938 193.476562 -187.988281 183.6875 -206.375 C 173.90625 -224.757812 161.597656 -242.550781 146.765625 -259.75 C 131.941406 -276.945312 116.523438 -291.769531 100.515625 -304.21875 C 77.984375 -324.976562 61.523438 -344.101562 51.140625 -361.59375 C 40.765625 -379.09375 35.578125 -396.144531 35.578125 -412.75 C 35.578125 -434.6875 43.285156 -460.035156 58.703125 -488.796875 C 74.128906 -517.566406 95.035156 -546.179688 121.421875 -574.640625 C 147.816406 -603.109375 178.359375 -628.609375 213.046875 -651.140625 C 247.734375 -673.679688 284.054688 -689.695312 322.015625 -699.1875 C 326.171875 -701.550781 330.023438 -703.769531 333.578125 -705.84375 C 337.140625 -707.925781 342.179688 -708.96875 348.703125 -708.96875 C 364.117188 -708.96875 378.203125 -705.851562 390.953125 -699.625 C 403.703125 -693.394531 413.929688 -685.976562 421.640625 -677.375 C 429.347656 -668.78125 433.203125 -660.628906 433.203125 -652.921875 C 433.203125 -638.097656 427.421875 -627.425781 415.859375 -620.90625 C 404.296875 -614.382812 393.175781 -608.75 382.5 -604 C 353.445312 -592.144531 326.171875 -577.910156 300.671875 -561.296875 C 275.171875 -544.691406 249.375 -528.679688 223.28125 -513.265625 C 207.851562 -503.773438 192.875 -490.578125 178.34375 -473.671875 C 163.820312 -456.773438 156.5625 -439.132812 156.5625 -420.75 C 156.5625 -413.039062 158.488281 -405.035156 162.34375 -396.734375 C 166.195312 -388.429688 172.570312 -380.722656 181.46875 -373.609375 C 206.375 -353.441406 230.242188 -330.609375 253.078125 -305.109375 C 275.910156 -279.609375 294.738281 -252.625 309.5625 -224.15625 C 324.382812 -195.695312 331.796875 -166.9375 331.796875 -137.875 C 331.796875 -135.507812 331.644531 -133.285156 331.34375 -131.203125 C 331.050781 -129.128906 330.90625 -126.90625 330.90625 -124.53125 Z M 330.90625 -124.53125 "/></g></g></g><g fill="#000000" fill-opacity="1"><g transform="translate(3535.093875, 1429.828255)"><g><path d="M 32.03125 212.609375 C 33.207031 177.617188 36.613281 142.773438 42.25 108.078125 C 47.882812 73.390625 53.519531 38.847656 59.15625 4.453125 C 64.789062 -29.941406 67.609375 -64.632812 67.609375 -99.625 C 67.609375 -116.820312 65.234375 -134.613281 60.484375 -153 C 55.742188 -171.382812 53.375 -188.582031 53.375 -204.59375 C 53.375 -239.582031 67.753906 -268.34375 96.515625 -290.875 C 125.273438 -313.414062 164.859375 -324.6875 215.265625 -324.6875 C 245.515625 -324.6875 274.273438 -319.492188 301.546875 -309.109375 C 328.828125 -298.734375 351.066406 -282.722656 368.265625 -261.078125 C 385.460938 -239.429688 394.0625 -211.113281 394.0625 -176.125 C 394.0625 -151.21875 387.6875 -128.535156 374.9375 -108.078125 C 362.1875 -87.617188 344.691406 -71.3125 322.453125 -59.15625 C 300.222656 -47 274.578125 -40.921875 245.515625 -40.921875 C 236.617188 -40.921875 228.613281 -41.21875 221.5 -41.8125 C 214.382812 -42.40625 208.15625 -42.703125 202.8125 -42.703125 C 186.207031 -42.703125 175.828125 -38.695312 171.671875 -30.6875 C 167.523438 -22.6875 164.265625 -6.523438 161.890625 17.796875 C 155.960938 71.753906 150.625 126.160156 145.875 181.015625 C 141.132812 235.878906 134.613281 290.585938 126.3125 345.140625 C 118.007812 398.515625 100.21875 425.203125 72.9375 425.203125 C 58.707031 425.203125 47.441406 416.75 39.140625 399.84375 C 30.835938 382.945312 26.6875 362.9375 26.6875 339.8125 C 26.6875 318.457031 27.425781 297.253906 28.90625 276.203125 C 30.394531 255.148438 31.4375 233.953125 32.03125 212.609375 Z M 32.03125 212.609375 "/></g></g></g><g fill="#000000" fill-opacity="1"><g transform="translate(3955.781909, 1429.828255)"><g><path d="M 386.953125 -135.21875 C 391.691406 -127.5 398.210938 -122.304688 406.515625 -119.640625 C 414.828125 -116.972656 424.019531 -115.34375 434.09375 -114.75 C 444.175781 -114.15625 453.8125 -112.96875 463 -111.1875 C 472.195312 -109.414062 479.757812 -105.414062 485.6875 -99.1875 C 491.625 -92.957031 494.59375 -83.023438 494.59375 -69.390625 C 494.59375 -51.597656 489.398438 -37.066406 479.015625 -25.796875 C 468.640625 -14.523438 455.59375 -6.070312 439.875 -0.4375 C 424.164062 5.1875 407.5625 9.035156 390.0625 11.109375 C 372.570312 13.191406 356.707031 14.234375 342.46875 14.234375 C 320.53125 14.234375 299.179688 10.378906 278.421875 2.671875 C 257.671875 -5.035156 238.101562 -18.378906 219.71875 -37.359375 C 208.445312 -49.222656 197.472656 -57.96875 186.796875 -63.59375 C 176.128906 -69.226562 164.566406 -72.046875 152.109375 -72.046875 C 143.210938 -72.046875 133.425781 -70.265625 122.75 -66.703125 C 112.082031 -63.148438 101.707031 -61.375 91.625 -61.375 C 78.570312 -61.375 64.929688 -65.523438 50.703125 -73.828125 C 36.472656 -82.128906 24.460938 -92.800781 14.671875 -105.84375 C 4.890625 -118.894531 0 -132.242188 0 -145.890625 C 0 -165.453125 6.96875 -182.347656 20.90625 -196.578125 C 34.84375 -210.816406 50.410156 -217.9375 67.609375 -217.9375 C 71.160156 -217.9375 74.863281 -217.785156 78.71875 -217.484375 C 82.570312 -217.191406 85.984375 -217.046875 88.953125 -217.046875 C 109.117188 -217.046875 124.832031 -222.53125 136.09375 -233.5 C 147.363281 -244.476562 158.632812 -258.566406 169.90625 -275.765625 C 179.988281 -295.328125 194.367188 -312.222656 213.046875 -326.453125 C 231.722656 -340.691406 252.625 -351.664062 275.75 -359.375 C 298.882812 -367.082031 321.421875 -370.9375 343.359375 -370.9375 C 369.453125 -370.9375 389.910156 -363.96875 404.734375 -350.03125 C 419.566406 -336.09375 430.09375 -318.894531 436.3125 -298.4375 C 442.539062 -277.976562 445.65625 -258.257812 445.65625 -239.28125 C 445.65625 -229.207031 444.023438 -219.128906 440.765625 -209.046875 C 437.503906 -198.960938 431.425781 -188.878906 422.53125 -178.796875 C 416.601562 -172.273438 409.191406 -166.640625 400.296875 -161.890625 C 391.398438 -157.148438 386.953125 -148.257812 386.953125 -135.21875 Z M 386.953125 -135.21875 "/></g></g></g><g fill="#000000" fill-opacity="1"><g transform="translate(4476.972437, 1429.828255)"><g><path d="M 348.703125 -147.671875 C 326.765625 -107.929688 300.96875 -77.085938 271.3125 -55.140625 C 241.65625 -33.203125 203.703125 -22.234375 157.453125 -22.234375 C 136.097656 -22.234375 115.335938 -26.679688 95.171875 -35.578125 C 75.015625 -44.472656 58.5625 -57.816406 45.8125 -75.609375 C 33.0625 -93.398438 26.6875 -115.640625 26.6875 -142.328125 C 26.6875 -169.609375 34.097656 -194.957031 48.921875 -218.375 C 63.742188 -241.800781 83.3125 -261.671875 107.625 -277.984375 C 131.945312 -294.296875 158.046875 -305.414062 185.921875 -311.34375 C 188.878906 -311.9375 191.546875 -312.378906 193.921875 -312.671875 C 196.296875 -312.972656 198.664062 -313.125 201.03125 -313.125 C 215.863281 -313.125 229.207031 -308.972656 241.0625 -300.671875 C 252.925781 -292.367188 258.859375 -283.769531 258.859375 -274.875 C 258.859375 -262.414062 253.222656 -250.703125 241.953125 -239.734375 C 230.691406 -228.765625 217.796875 -218.382812 203.265625 -208.59375 C 188.734375 -198.8125 175.832031 -189.320312 164.5625 -180.125 C 153.300781 -170.9375 147.671875 -161.894531 147.671875 -153 C 147.671875 -144.101562 151.078125 -136.539062 157.890625 -130.3125 C 164.710938 -124.09375 172.570312 -120.984375 181.46875 -120.984375 C 183.84375 -120.984375 186.804688 -121.570312 190.359375 -122.75 C 205.773438 -127.5 221.34375 -131.648438 237.0625 -135.203125 C 252.78125 -138.765625 268.347656 -143.507812 283.765625 -149.4375 C 289.097656 -151.21875 294.582031 -153 300.21875 -154.78125 C 305.851562 -156.5625 311.632812 -157.453125 317.5625 -157.453125 C 327.644531 -157.453125 338.023438 -154.191406 348.703125 -147.671875 Z M 348.703125 -147.671875 "/></g></g></g><g fill="#000000" fill-opacity="1"><g transform="translate(4825.618746, 1429.828255)"><g><path d="M 106.75 -178.796875 C 121.570312 -177.609375 134.765625 -171.53125 146.328125 -160.5625 C 157.890625 -149.59375 167.082031 -136.394531 173.90625 -120.96875 C 180.726562 -105.550781 184.140625 -90.132812 184.140625 -74.71875 C 184.140625 -59.894531 178.0625 -45.066406 165.90625 -30.234375 C 153.75 -15.410156 139.070312 -8 121.875 -8 C 108.226562 -8 95.472656 -13.484375 83.609375 -24.453125 C 71.753906 -35.429688 62.269531 -49.664062 55.15625 -67.15625 C 48.039062 -84.65625 44.484375 -102.597656 44.484375 -120.984375 C 44.484375 -144.109375 50.5625 -159.523438 62.71875 -167.234375 C 74.875 -174.941406 89.550781 -178.796875 106.75 -178.796875 Z M 175.234375 -422.53125 C 172.867188 -404.144531 166.050781 -388.28125 154.78125 -374.9375 C 143.507812 -361.59375 130.460938 -354.921875 115.640625 -354.921875 C 96.660156 -354.921875 80.203125 -361.441406 66.265625 -374.484375 C 52.328125 -387.535156 45.359375 -402.070312 45.359375 -418.09375 C 45.359375 -435.289062 51.585938 -450.554688 64.046875 -463.890625 C 76.503906 -477.234375 91.628906 -483.90625 109.421875 -483.90625 C 120.679688 -483.90625 131.203125 -480.644531 140.984375 -474.125 C 150.773438 -467.601562 158.929688 -459.597656 165.453125 -450.109375 C 171.972656 -440.617188 175.234375 -431.425781 175.234375 -422.53125 Z M 175.234375 -422.53125 "/></g></g></g><g fill="#000000" fill-opacity="1"><g transform="translate(5036.40736, 1429.828255)"><g><path d="M 386.953125 -135.21875 C 391.691406 -127.5 398.210938 -122.304688 406.515625 -119.640625 C 414.828125 -116.972656 424.019531 -115.34375 434.09375 -114.75 C 444.175781 -114.15625 453.8125 -112.96875 463 -111.1875 C 472.195312 -109.414062 479.757812 -105.414062 485.6875 -99.1875 C 491.625 -92.957031 494.59375 -83.023438 494.59375 -69.390625 C 494.59375 -51.597656 489.398438 -37.066406 479.015625 -25.796875 C 468.640625 -14.523438 455.59375 -6.070312 439.875 -0.4375 C 424.164062 5.1875 407.5625 9.035156 390.0625 11.109375 C 372.570312 13.191406 356.707031 14.234375 342.46875 14.234375 C 320.53125 14.234375 299.179688 10.378906 278.421875 2.671875 C 257.671875 -5.035156 238.101562 -18.378906 219.71875 -37.359375 C 208.445312 -49.222656 197.472656 -57.96875 186.796875 -63.59375 C 176.128906 -69.226562 164.566406 -72.046875 152.109375 -72.046875 C 143.210938 -72.046875 133.425781 -70.265625 122.75 -66.703125 C 112.082031 -63.148438 101.707031 -61.375 91.625 -61.375 C 78.570312 -61.375 64.929688 -65.523438 50.703125 -73.828125 C 36.472656 -82.128906 24.460938 -92.800781 14.671875 -105.84375 C 4.890625 -118.894531 0 -132.242188 0 -145.890625 C 0 -165.453125 6.96875 -182.347656 20.90625 -196.578125 C 34.84375 -210.816406 50.410156 -217.9375 67.609375 -217.9375 C 71.160156 -217.9375 74.863281 -217.785156 78.71875 -217.484375 C 82.570312 -217.191406 85.984375 -217.046875 88.953125 -217.046875 C 109.117188 -217.046875 124.832031 -222.53125 136.09375 -233.5 C 147.363281 -244.476562 158.632812 -258.566406 169.90625 -275.765625 C 179.988281 -295.328125 194.367188 -312.222656 213.046875 -326.453125 C 231.722656 -340.691406 252.625 -351.664062 275.75 -359.375 C 298.882812 -367.082031 321.421875 -370.9375 343.359375 -370.9375 C 369.453125 -370.9375 389.910156 -363.96875 404.734375 -350.03125 C 419.566406 -336.09375 430.09375 -318.894531 436.3125 -298.4375 C 442.539062 -277.976562 445.65625 -258.257812 445.65625 -239.28125 C 445.65625 -229.207031 444.023438 -219.128906 440.765625 -209.046875 C 437.503906 -198.960938 431.425781 -188.878906 422.53125 -178.796875 C 416.601562 -172.273438 409.191406 -166.640625 400.296875 -161.890625 C 391.398438 -157.148438 386.953125 -148.257812 386.953125 -135.21875 Z M 386.953125 -135.21875 "/></g></g></g><g fill="#000000" fill-opacity="1"><g transform="translate(5557.597888, 1429.828255)"><g><path d="M 100.515625 80.0625 C 82.128906 78.28125 67.597656 72.789062 56.921875 63.59375 C 46.253906 54.40625 40.921875 42.992188 40.921875 29.359375 C 40.921875 22.828125 42.847656 15.410156 46.703125 7.109375 C 50.554688 -1.191406 54.257812 -9.34375 57.8125 -17.34375 C 61.375 -25.351562 63.15625 -32.320312 63.15625 -38.25 C 63.15625 -46.550781 60.191406 -56.335938 54.265625 -67.609375 C 41.804688 -91.921875 35.578125 -118.609375 35.578125 -147.671875 C 35.578125 -184.429688 45.363281 -218.820312 64.9375 -250.84375 C 84.507812 -282.875 110.898438 -306.597656 144.109375 -322.015625 C 150.035156 -324.984375 155.960938 -327.207031 161.890625 -328.6875 C 167.828125 -330.164062 173.757812 -330.90625 179.6875 -330.90625 C 196.289062 -330.90625 209.78125 -325.566406 220.15625 -314.890625 C 230.539062 -304.222656 235.734375 -292.066406 235.734375 -278.421875 C 235.734375 -269.523438 233.210938 -261.664062 228.171875 -254.84375 C 223.128906 -248.03125 215.863281 -240.769531 206.375 -233.0625 C 187.988281 -218.238281 174.195312 -205.632812 165 -195.25 C 155.8125 -184.875 151.21875 -174.644531 151.21875 -164.5625 C 151.21875 -155.070312 154.773438 -144.394531 161.890625 -132.53125 C 169.015625 -120.675781 179.394531 -104.960938 193.03125 -85.390625 C 201.332031 -75.898438 207.707031 -65.96875 212.15625 -55.59375 C 216.601562 -45.21875 218.828125 -34.691406 218.828125 -24.015625 C 218.828125 -0.890625 211.859375 18.378906 197.921875 33.796875 C 183.984375 49.222656 167.820312 60.789062 149.4375 68.5 C 131.0625 76.207031 114.753906 80.0625 100.515625 80.0625 Z M 100.515625 80.0625 "/></g></g></g></svg>